<?xml version="1.0" encoding="UTF-8" standalone="no"?>
<!DOCTYPE svg PUBLIC "-//W3C//DTD SVG 1.1//EN" "http://www.w3.org/Graphics/SVG/1.1/DTD/svg11.dtd">
<svg xmlns="http://www.w3.org/2000/svg" version="1.1" viewBox="0.00 0.00 405.00 348.00">
<path fill="#e03584" d="
  M 63.00 241.40
  Q 63.00 160.67 63.00 79.93
  Q 63.00 79.89 62.69 72.58
  C 61.78 51.35 79.55 33.69 99.59 31.21
  Q 101.88 30.93 119.57 30.95
  Q 204.42 31.06 289.27 30.98
  Q 289.37 30.98 296.74 30.73
  Q 322.01 29.89 335.76 51.75
  C 340.51 59.30 341.39 65.16 341.33 74.80
  Q 340.76 165.34 341.05 255.88
  Q 341.09 268.89 341.01 269.60
  C 339.27 285.85 325.44 299.48 310.43 303.43
  C 305.51 304.72 298.53 304.02 294.44 304.01
  Q 202.69 303.99 110.94 304.00
  Q 110.84 304.00 104.07 304.29
  C 81.98 305.21 64.44 286.49 62.72 265.78
  C 62.17 259.12 63.00 248.90 63.00 241.40
  Z
  M 165.3635 168.0536
  A 37.91 37.41 11.0 0 0 135.2882 124.0973
  A 37.91 37.41 11.0 0 0 90.9365 153.5864
  A 37.91 37.41 11.0 0 0 121.0118 197.5427
  A 37.91 37.41 11.0 0 0 165.3635 168.0536
  Z
  M 311.8745 179.2895
  A 37.72 37.25 29.3 0 0 297.2095 128.3454
  A 37.72 37.25 29.3 0 0 246.0855 142.3705
  A 37.72 37.25 29.3 0 0 260.7505 193.3146
  A 37.72 37.25 29.3 0 0 311.8745 179.2895
  Z
  M 194.00 222.25
  Q 160.86 221.43 129.00 209.27
  C 121.85 206.55 117.81 216.50 124.54 219.75
  Q 133.64 224.14 147.74 227.76
  Q 191.46 238.97 236.26 233.01
  C 251.07 231.04 268.32 228.28 279.82 222.17
  C 285.93 218.93 281.94 209.40 276.42 211.36
  C 249.84 220.79 221.42 222.93 194.00 222.25
  Z"
/>
<path fill="#e03584" d="
  M 32.95 132.91
  C 36.05 126.75 47.00 126.89 47.00 135.79
  Q 47.00 183.53 47.00 231.25
  C 47.00 239.06 36.65 239.13 33.38 234.22
  Q 31.99 232.12 31.99 227.49
  Q 32.01 183.36 31.99 139.24
  Q 31.99 134.81 32.95 132.91
  Z"
/>
<path fill="#e03584" d="
  M 372.80 143.19
  Q 373.23 185.09 372.92 227.00
  Q 372.89 231.58 370.02 234.78
  C 366.80 238.39 360.64 238.09 358.07 233.91
  Q 357.02 232.20 357.01 228.26
  Q 356.99 182.96 357.00 137.64
  Q 357.00 133.90 358.20 132.13
  C 362.05 126.45 371.14 128.24 372.54 134.83
  Q 372.72 135.66 372.80 143.19
  Z"
/>
<circle fill="#e03584" cx="136.51" cy="176.47" r="14.12"/>
<ellipse fill="#e03584" cx="0.00" cy="0.00" transform="translate(287.10,176.43) rotate(72.8)" rx="14.33" ry="14.11"/>
</svg>
