<?xml version="1.0" encoding="UTF-8" standalone="no"?>
<!DOCTYPE svg PUBLIC "-//W3C//DTD SVG 1.1//EN" "http://www.w3.org/Graphics/SVG/1.1/DTD/svg11.dtd">
<svg xmlns="http://www.w3.org/2000/svg" version="1.1" viewBox="0.00 0.00 546.00 533.00">
<path fill="#000000" d="
  M 363.16 64.99
  C 356.99 61.86 359.45 53.02 366.01 52.79
  Q 368.78 52.68 373.37 55.12
  C 417.36 78.43 454.13 116.51 475.68 161.45
  Q 477.36 164.94 476.99 167.40
  C 476.15 172.99 468.95 175.93 465.58 169.66
  Q 457.84 155.28 455.70 151.55
  C 434.21 114.21 401.53 84.42 363.16 64.99
  Z"
/>
<path fill="#000000" d="
  M 424.89 325.81
  C 429.44 327.90 431.08 329.80 429.01 334.76
  C 383.05 444.71 253.31 483.44 154.97 418.02
  C 89.57 374.52 58.54 292.43 81.58 216.53
  C 105.21 138.69 175.64 84.49 257.67 83.79
  C 307.77 83.36 356.89 103.16 391.64 140.23
  C 396.12 145.01 389.20 151.34 386.22 154.22
  Q 378.32 161.84 369.62 169.40
  A 2.00 2.00 0.0 0 1 366.87 169.29
  C 360.47 162.71 353.76 155.74 346.63 150.39
  C 278.39 99.18 185.72 116.32 137.67 186.13
  C 72.87 280.27 137.77 404.04 248.95 411.99
  C 314.51 416.68 373.34 376.69 396.08 315.74
  A 0.66 0.66 0.0 0 1 396.89 315.34
  Q 411.16 319.52 424.89 325.81
  Z"
/>
<path fill="#000000" d="
  M 233.0799 236.3943
  A 36.85 36.47 0.1 0 1 196.1663 272.7999
  A 36.85 36.47 0.1 0 1 159.3801 236.2657
  A 36.85 36.47 0.1 0 1 196.2937 199.8601
  A 36.85 36.47 0.1 0 1 233.0799 236.3943
  Z
  M 212.24 236.52
  A 16.09 16.09 0.0 0 0 196.15 220.43
  A 16.09 16.09 0.0 0 0 180.06 236.52
  A 16.09 16.09 0.0 0 0 196.15 252.61
  A 16.09 16.09 0.0 0 0 212.24 236.52
  Z"
/>
<path fill="#000000" d="
  M 349.7650 232.6876
  A 27.32 26.91 -10.7 0 1 327.9163 264.2021
  A 27.32 26.91 -10.7 0 1 296.0750 242.8324
  A 27.32 26.91 -10.7 0 1 317.9237 211.3179
  A 27.32 26.91 -10.7 0 1 349.7650 232.6876
  Z
  M 333.13 237.71
  A 10.11 10.11 0.0 0 0 323.02 227.60
  A 10.11 10.11 0.0 0 0 312.91 237.71
  A 10.11 10.11 0.0 0 0 323.02 247.82
  A 10.11 10.11 0.0 0 0 333.13 237.71
  Z"
/>
<path fill="#000000" d="
  M 299.55 316.86
  C 304.90 317.76 305.99 322.16 304.97 327.07
  C 304.23 330.68 303.41 330.73 300.22 332.89
  C 284.26 343.75 265.27 347.42 246.32 344.53
  C 234.73 342.76 223.37 337.06 213.97 330.58
  Q 213.57 330.30 213.41 329.84
  C 209.77 318.93 218.84 312.93 228.12 319.02
  C 245.52 330.45 270.98 332.17 289.15 319.88
  C 293.05 317.24 295.29 316.13 299.55 316.86
  Z"
/>
<path fill="#000000" d="
  M 372.05 476.76
  C 362.88 481.38 357.04 469.88 366.53 464.87
  C 392.01 451.41 413.56 435.11 431.34 412.86
  C 433.66 409.96 436.54 407.55 440.39 409.54
  C 445.14 411.99 444.81 416.75 441.73 420.60
  Q 413.67 455.79 372.05 476.76
  Z"
/>
</svg>
