<?xml version="1.0" encoding="UTF-8" standalone="no"?>
<!DOCTYPE svg PUBLIC "-//W3C//DTD SVG 1.1//EN" "http://www.w3.org/Graphics/SVG/1.1/DTD/svg11.dtd">
<svg xmlns="http://www.w3.org/2000/svg" version="1.1" viewBox="0.00 0.00 546.00 533.00">
<g stroke-width="2.00" fill="none" stroke-linecap="butt">
<path stroke="#6e6e6e" stroke-opacity="0.996" vector-effect="non-scaling-stroke" d="
  M 368.00 52.54
  Q 368.63 53.89 370.00 53.29"
/>
<path stroke="#6e6e6e" stroke-opacity="0.996" vector-effect="non-scaling-stroke" d="
  M 373.74 55.08
  C 381.47 59.78 389.30 64.07 396.67 69.35
  Q 400.17 71.85 404.04 73.75"
/>
<path stroke="#6e6e6e" stroke-opacity="0.996" vector-effect="non-scaling-stroke" d="
  M 405.50 74.96
  Q 409.07 79.23 414.04 81.75"
/>
<path stroke="#6e6e6e" stroke-opacity="0.996" vector-effect="non-scaling-stroke" d="
  M 415.50 82.96
  Q 416.83 85.95 420.04 86.75"
/>
<path stroke="#6e6e6e" stroke-opacity="0.996" vector-effect="non-scaling-stroke" d="
  M 423.50 90.21
  Q 428.66 97.32 435.74 102.58"
/>
<path stroke="#6e6e6e" stroke-opacity="0.996" vector-effect="non-scaling-stroke" d="
  M 439.00 105.96
  Q 440.64 109.46 443.75 111.71"
/>
<path stroke="#6e6e6e" stroke-opacity="0.996" vector-effect="non-scaling-stroke" d="
  M 470.35 150.04
  Q 472.10 155.52 475.59 160.07"
/>
<path stroke="#6e6e6e" stroke-opacity="0.996" vector-effect="non-scaling-stroke" d="
  M 477.25 163.96
  Q 477.78 173.68 467.98 173.46"
/>
<path stroke="#6e6e6e" stroke-opacity="0.996" vector-effect="non-scaling-stroke" d="
  M 463.71 167.25
  Q 462.89 163.21 460.00 160.29"
/>
<path stroke="#6e6e6e" stroke-opacity="0.996" vector-effect="non-scaling-stroke" d="
  M 456.75 154.68
  Q 453.54 147.23 448.19 139.81
  Q 447.80 139.26 447.46 139.50"
/>
<path stroke="#6e6e6e" stroke-opacity="0.996" vector-effect="non-scaling-stroke" d="
  M 446.75 139.04
  Q 446.89 138.96 447.02 138.88
  Q 447.29 138.72 447.14 138.45
  Q 444.60 133.99 440.96 130.30"
/>
<path stroke="#6e6e6e" stroke-opacity="0.996" vector-effect="non-scaling-stroke" d="
  M 438.75 127.29
  Q 438.80 125.52 437.00 125.04"
/>
<path stroke="#6e6e6e" stroke-opacity="0.996" vector-effect="non-scaling-stroke" d="
  M 435.72 123.85
  Q 435.21 121.77 433.67 120.31
  C 430.53 117.33 427.13 111.47 423.46 109.75"
/>
<path stroke="#6e6e6e" stroke-opacity="0.996" vector-effect="non-scaling-stroke" d="
  M 416.75 103.04
  Q 416.34 101.62 415.21 100.74
  C 413.15 99.15 411.28 97.44 408.96 96.25"
/>
<path stroke="#6e6e6e" stroke-opacity="0.996" vector-effect="non-scaling-stroke" d="
  M 407.00 94.79
  Q 406.05 91.92 402.96 91.50"
/>
<path stroke="#6e6e6e" stroke-opacity="0.996" vector-effect="non-scaling-stroke" d="
  M 401.84 90.25
  Q 399.20 86.85 395.27 85.36"
/>
<path stroke="#6e6e6e" stroke-opacity="0.996" vector-effect="non-scaling-stroke" d="
  M 393.50 84.04
  Q 391.51 81.04 387.96 80.25"
/>
<path stroke="#6e6e6e" stroke-opacity="0.996" vector-effect="non-scaling-stroke" d="
  M 387.46 79.50
  Q 387.13 78.47 386.22 78.21
  Q 385.92 78.13 385.64 77.97
  L 381.02 75.37"
/>
<path stroke="#6e6e6e" stroke-opacity="0.996" vector-effect="non-scaling-stroke" d="
  M 379.00 74.29
  Q 378.20 72.42 376.00 72.29"
/>
<path stroke="#6e6e6e" stroke-opacity="0.996" vector-effect="non-scaling-stroke" d="
  M 371.50 69.79
  Q 366.55 66.38 361.00 64.04"
/>
<path stroke="#6e6e6e" stroke-opacity="0.996" vector-effect="non-scaling-stroke" d="
  M 359.50 60.79
  Q 360.15 59.04 359.71 57.25"
/>
<path stroke="#6e6e6e" stroke-opacity="0.996" vector-effect="non-scaling-stroke" d="
  M 360.00 56.46
  L 362.00 54.04"
/>
<path stroke="#6e6e6e" stroke-opacity="0.996" vector-effect="non-scaling-stroke" d="
  M 278.00 84.53
  L 263.49 83.51"
/>
<path stroke="#6e6e6e" stroke-opacity="0.996" vector-effect="non-scaling-stroke" d="
  M 279.96 84.25
  L 285.84 85.44
  Q 286.21 85.51 286.25 85.14
  Q 286.27 84.97 286.25 84.79"
/>
<path stroke="#6e6e6e" stroke-opacity="0.996" vector-effect="non-scaling-stroke" d="
  M 288.00 85.04
  Q 287.95 85.60 288.32 85.66
  C 317.54 90.50 343.83 101.79 367.59 118.96
  Q 367.75 119.08 367.90 118.96
  Q 368.03 118.88 368.04 118.75"
/>
<path stroke="#6e6e6e" stroke-opacity="0.996" vector-effect="non-scaling-stroke" d="
  M 369.25 119.71
  Q 369.87 121.72 372.04 121.75"
/>
<path stroke="#6e6e6e" stroke-opacity="0.996" vector-effect="non-scaling-stroke" d="
  M 373.50 122.96
  Q 374.39 125.35 377.04 125.75"
/>
<path stroke="#6e6e6e" stroke-opacity="0.996" vector-effect="non-scaling-stroke" d="
  M 379.50 127.96
  Q 380.56 129.99 382.79 130.50"
/>
<path stroke="#6e6e6e" stroke-opacity="0.996" vector-effect="non-scaling-stroke" d="
  M 384.25 131.96
  Q 387.14 136.57 391.75 139.59"
/>
<path stroke="#6e6e6e" stroke-opacity="0.996" vector-effect="non-scaling-stroke" d="
  M 393.50 142.96
  Q 392.80 144.07 393.29 145.25"
/>
<path stroke="#6e6e6e" stroke-opacity="0.996" vector-effect="non-scaling-stroke" d="
  M 391.75 148.29
  C 391.54 148.22 384.74 156.25 383.97 157.03
  C 381.35 159.69 377.52 161.21 375.04 165.00"
/>
<path stroke="#6e6e6e" stroke-opacity="0.996" vector-effect="non-scaling-stroke" d="
  M 407.96 318.62
  Q 416.12 322.74 424.97 324.93"
/>
<path stroke="#6e6e6e" stroke-opacity="0.996" vector-effect="non-scaling-stroke" d="
  M 423.96 347.00
  Q 422.12 348.03 422.44 350.08"
/>
<path stroke="#6e6e6e" stroke-opacity="0.996" vector-effect="non-scaling-stroke" d="
  M 420.46 354.75
  Q 419.06 355.08 419.50 356.29"
/>
<path stroke="#6e6e6e" stroke-opacity="0.996" vector-effect="non-scaling-stroke" d="
  M 410.96 369.25
  Q 409.05 370.76 408.25 373.04"
/>
<path stroke="#6e6e6e" stroke-opacity="0.996" vector-effect="non-scaling-stroke" d="
  M 405.04 378.17
  Q 402.58 378.98 402.00 381.46"
/>
<path stroke="#6e6e6e" stroke-opacity="0.996" vector-effect="non-scaling-stroke" d="
  M 401.46 382.75
  Q 399.45 383.89 398.50 386.00"
/>
<path stroke="#6e6e6e" stroke-opacity="0.996" vector-effect="non-scaling-stroke" d="
  M 398.50 386.00
  Q 396.78 386.46 396.28 388.01
  Q 396.13 388.47 395.79 388.81
  Q 388.55 395.99 381.28 403.11
  C 379.32 405.03 375.77 407.10 373.79 410.25"
/>
<path stroke="#6e6e6e" stroke-opacity="0.996" vector-effect="non-scaling-stroke" d="
  M 372.96 410.75
  C 369.41 412.56 366.80 415.07 363.30 417.08
  Q 361.47 418.13 360.04 419.75"
/>
<path stroke="#6e6e6e" stroke-opacity="0.996" vector-effect="non-scaling-stroke" d="
  M 358.00 421.29
  Q 355.17 421.63 354.00 424.04"
/>
<path stroke="#6e6e6e" stroke-opacity="0.996" vector-effect="non-scaling-stroke" d="
  M 352.71 424.75
  Q 349.37 425.32 347.04 427.75"
/>
<path stroke="#6e6e6e" stroke-opacity="0.996" vector-effect="non-scaling-stroke" d="
  M 332.00 435.04
  Q 328.13 435.73 325.00 438.04"
/>
<path stroke="#6e6e6e" stroke-opacity="0.996" vector-effect="non-scaling-stroke" d="
  M 309.25 443.29
  Q 307.74 442.81 307.00 443.96"
/>
<path stroke="#6e6e6e" stroke-opacity="0.996" vector-effect="non-scaling-stroke" d="
  M 304.25 444.71
  L 303.58 444.50
  Q 303.30 444.41 303.16 444.66
  L 303.00 444.96"
/>
<path stroke="#6e6e6e" stroke-opacity="0.996" vector-effect="non-scaling-stroke" d="
  M 302.00 445.04
  Q 300.22 444.74 299.00 445.96"
/>
<path stroke="#6e6e6e" stroke-opacity="0.996" vector-effect="non-scaling-stroke" d="
  M 293.50 447.04
  L 291.04 447.25"
/>
<path stroke="#6e6e6e" stroke-opacity="0.996" vector-effect="non-scaling-stroke" d="
  M 289.96 447.25
  Q 288.23 446.75 288.25 447.96"
/>
<path stroke="#6e6e6e" stroke-opacity="0.996" vector-effect="non-scaling-stroke" d="
  M 283.00 448.29
  L 273.86 449.88"
/>
<path stroke="#6e6e6e" stroke-opacity="0.996" vector-effect="non-scaling-stroke" d="
  M 272.50 449.46
  Q 269.87 448.57 267.75 450.04"
/>
<path stroke="#6e6e6e" stroke-opacity="0.996" vector-effect="non-scaling-stroke" d="
  M 249.80 449.91
  L 235.00 448.29"
/>
<path stroke="#6e6e6e" stroke-opacity="0.996" vector-effect="non-scaling-stroke" d="
  M 234.21 448.75
  Q 232.71 447.32 230.75 448.29"
/>
<path stroke="#6e6e6e" stroke-opacity="0.996" vector-effect="non-scaling-stroke" d="
  M 224.50 446.96
  Q 222.80 445.60 220.71 446.25"
/>
<path stroke="#6e6e6e" stroke-opacity="0.996" vector-effect="non-scaling-stroke" d="
  M 219.00 445.96
  Q 218.93 445.87 218.89 445.71
  Q 218.79 445.32 218.39 445.39
  L 217.79 445.50"
/>
<path stroke="#6e6e6e" stroke-opacity="0.996" vector-effect="non-scaling-stroke" d="
  M 214.75 444.96
  L 213.79 444.50"
/>
<path stroke="#6e6e6e" stroke-opacity="0.996" vector-effect="non-scaling-stroke" d="
  M 210.50 444.21
  Q 210.54 444.08 210.65 443.97
  Q 210.87 443.76 210.65 443.55
  Q 209.89 442.81 209.00 443.29"
/>
<path stroke="#6e6e6e" stroke-opacity="0.996" vector-effect="non-scaling-stroke" d="
  M 208.00 442.96
  Q 207.03 441.36 205.25 442.04"
/>
<path stroke="#6e6e6e" stroke-opacity="0.996" vector-effect="non-scaling-stroke" d="
  M 204.29 442.00
  Q 203.62 440.40 202.00 441.04"
/>
<path stroke="#6e6e6e" stroke-opacity="0.996" vector-effect="non-scaling-stroke" d="
  M 201.29 441.00
  Q 200.54 439.51 198.75 440.04"
/>
<path stroke="#6e6e6e" stroke-opacity="0.996" vector-effect="non-scaling-stroke" d="
  M 198.00 439.96
  Q 197.26 438.54 195.79 439.50"
/>
<path stroke="#6e6e6e" stroke-opacity="0.996" vector-effect="non-scaling-stroke" d="
  M 194.25 438.54
  Q 192.71 436.85 190.96 438.00"
/>
<path stroke="#6e6e6e" stroke-opacity="0.996" vector-effect="non-scaling-stroke" d="
  M 184.07 434.62
  Q 177.23 430.22 169.81 426.91"
/>
<path stroke="#6e6e6e" stroke-opacity="0.996" vector-effect="non-scaling-stroke" d="
  M 166.00 425.21
  Q 165.10 423.12 162.75 423.21"
/>
<path stroke="#6e6e6e" stroke-opacity="0.996" vector-effect="non-scaling-stroke" d="
  M 144.00 410.29
  Q 143.10 408.36 140.96 408.25"
/>
<path stroke="#6e6e6e" stroke-opacity="0.996" vector-effect="non-scaling-stroke" d="
  M 139.46 406.65
  Q 136.78 403.42 133.25 401.29"
/>
<path stroke="#6e6e6e" stroke-opacity="0.996" vector-effect="non-scaling-stroke" d="
  M 129.75 397.79
  Q 129.22 395.61 127.00 395.04"
/>
<path stroke="#6e6e6e" stroke-opacity="0.996" vector-effect="non-scaling-stroke" d="
  M 120.75 388.79
  Q 119.23 385.33 115.96 383.50"
/>
<path stroke="#6e6e6e" stroke-opacity="0.996" vector-effect="non-scaling-stroke" d="
  M 110.50 376.79
  Q 110.10 373.93 107.50 372.50"
/>
<path stroke="#6e6e6e" stroke-opacity="0.996" vector-effect="non-scaling-stroke" d="
  M 107.50 372.50
  Q 107.49 370.81 106.00 370.29"
/>
<path stroke="#6e6e6e" stroke-opacity="0.996" vector-effect="non-scaling-stroke" d="
  M 104.75 369.04
  Q 105.51 367.50 103.75 366.79"
/>
<path stroke="#6e6e6e" stroke-opacity="0.996" vector-effect="non-scaling-stroke" d="
  M 103.00 366.04
  Q 103.06 365.97 103.12 365.90
  Q 103.15 365.87 103.11 365.58
  Q 102.97 364.43 101.96 364.50"
/>
<path stroke="#6e6e6e" stroke-opacity="0.996" vector-effect="non-scaling-stroke" d="
  M 100.89 363.01
  Q 99.44 358.06 96.03 354.26"
/>
<path stroke="#6e6e6e" stroke-opacity="0.996" vector-effect="non-scaling-stroke" d="
  M 89.25 340.54
  Q 89.19 338.17 87.29 336.75"
/>
<path stroke="#6e6e6e" stroke-opacity="0.996" vector-effect="non-scaling-stroke" d="
  M 84.68 329.74
  Q 84.25 325.99 82.75 322.50
  Q 82.56 322.05 82.00 322.29"
/>
<path stroke="#6e6e6e" stroke-opacity="0.996" vector-effect="non-scaling-stroke" d="
  M 81.50 320.29
  Q 81.74 318.24 80.29 316.75"
/>
<path stroke="#6e6e6e" stroke-opacity="0.996" vector-effect="non-scaling-stroke" d="
  M 79.29 312.75
  Q 79.56 311.19 78.50 309.96"
/>
<path stroke="#6e6e6e" stroke-opacity="0.996" vector-effect="non-scaling-stroke" d="
  M 77.29 304.00
  Q 77.58 301.76 76.50 299.71"
/>
<path stroke="#6e6e6e" stroke-opacity="0.996" vector-effect="non-scaling-stroke" d="
  M 76.29 299.00
  Q 76.47 299.05 76.64 298.96
  Q 76.95 298.79 76.84 298.47
  C 75.39 294.05 75.91 289.49 74.25 284.96"
/>
<path stroke="#6e6e6e" stroke-opacity="0.996" vector-effect="non-scaling-stroke" d="
  M 74.25 282.79
  C 74.36 277.36 73.72 272.03 73.98 266.74
  Q 74.30 260.23 74.25 253.71"
/>
<path stroke="#6e6e6e" stroke-opacity="0.996" vector-effect="non-scaling-stroke" d="
  M 74.25 251.54
  Q 75.84 247.78 75.25 243.71"
/>
<path stroke="#6e6e6e" stroke-opacity="0.996" vector-effect="non-scaling-stroke" d="
  M 75.29 242.75
  L 77.38 232.48
  Q 77.42 232.26 77.25 232.12
  Q 77.14 232.03 77.00 231.96"
/>
<path stroke="#6e6e6e" stroke-opacity="0.996" vector-effect="non-scaling-stroke" d="
  M 77.33 231.03
  L 82.29 212.75"
/>
<path stroke="#6e6e6e" stroke-opacity="0.996" vector-effect="non-scaling-stroke" d="
  M 83.29 208.75
  Q 85.43 207.05 85.29 204.25"
/>
<path stroke="#6e6e6e" stroke-opacity="0.996" vector-effect="non-scaling-stroke" d="
  M 88.29 196.00
  Q 91.31 192.56 92.62 188.12
  Q 92.64 188.03 92.55 188.01
  Q 92.43 187.98 92.29 188.00"
/>
<path stroke="#6e6e6e" stroke-opacity="0.996" vector-effect="non-scaling-stroke" d="
  M 93.54 185.50
  Q 93.68 185.52 93.82 185.51
  Q 94.06 185.50 94.18 185.28
  L 101.08 171.98"
/>
<path stroke="#6e6e6e" stroke-opacity="0.996" vector-effect="non-scaling-stroke" d="
  M 101.75 170.96
  Q 103.32 170.51 103.00 168.96"
/>
<path stroke="#6e6e6e" stroke-opacity="0.996" vector-effect="non-scaling-stroke" d="
  M 103.46 168.25
  Q 105.93 166.65 106.50 163.71"
/>
<path stroke="#6e6e6e" stroke-opacity="0.996" vector-effect="non-scaling-stroke" d="
  M 110.00 158.96
  L 117.25 149.79"
/>
<path stroke="#6e6e6e" stroke-opacity="0.996" vector-effect="non-scaling-stroke" d="
  M 132.00 133.96
  Q 136.06 131.37 139.21 127.75"
/>
<path stroke="#6e6e6e" stroke-opacity="0.996" vector-effect="non-scaling-stroke" d="
  M 254.75 83.66
  Q 213.87 84.99 179.44 101.44
  Q 161.22 110.15 141.52 125.84"
/>
<path stroke="#6e6e6e" stroke-opacity="0.996" vector-effect="non-scaling-stroke" d="
  M 441.04 409.50
  Q 434.47 407.38 431.04 413.30
  Q 430.62 414.03 429.79 414.00"
/>
<path stroke="#6e6e6e" stroke-opacity="0.996" vector-effect="non-scaling-stroke" d="
  M 443.00 410.96
  Q 444.23 414.00 444.21 417.25"
/>
<path stroke="#6e6e6e" stroke-opacity="0.996" vector-effect="non-scaling-stroke" d="
  M 443.96 418.00
  L 439.15 423.95"
/>
<path stroke="#6e6e6e" stroke-opacity="0.996" vector-effect="non-scaling-stroke" d="
  M 437.46 427.00
  Q 436.29 427.09 435.96 428.25"
/>
<path stroke="#6e6e6e" stroke-opacity="0.996" vector-effect="non-scaling-stroke" d="
  M 433.96 430.25
  Q 431.59 431.35 430.54 433.75"
/>
<path stroke="#6e6e6e" stroke-opacity="0.996" vector-effect="non-scaling-stroke" d="
  M 430.52 434.77
  Q 425.17 439.22 419.94 443.69
  Q 418.32 445.07 417.79 446.50"
/>
<path stroke="#6e6e6e" stroke-opacity="0.996" vector-effect="non-scaling-stroke" d="
  M 417.00 447.29
  Q 412.39 449.91 408.84 453.86
  Q 408.73 453.98 408.84 454.10
  Q 408.92 454.20 409.00 454.29"
/>
<path stroke="#6e6e6e" stroke-opacity="0.996" vector-effect="non-scaling-stroke" d="
  M 408.50 454.54
  Q 406.66 454.86 406.00 456.29"
/>
<path stroke="#6e6e6e" stroke-opacity="0.996" vector-effect="non-scaling-stroke" d="
  M 404.75 457.29
  Q 401.24 458.12 400.03 461.56"
/>
<path stroke="#6e6e6e" stroke-opacity="0.996" vector-effect="non-scaling-stroke" d="
  M 394.96 464.25
  Q 394.50 464.41 393.93 464.34
  Q 391.32 464.01 393.41 465.10
  Q 393.74 465.27 393.75 465.46"
/>
<path stroke="#6e6e6e" stroke-opacity="0.996" vector-effect="non-scaling-stroke" d="
  M 391.59 466.39
  Q 387.77 467.31 385.00 469.96"
/>
<path stroke="#6e6e6e" stroke-opacity="0.996" vector-effect="non-scaling-stroke" d="
  M 379.00 473.29
  Q 376.29 473.91 374.50 475.96"
/>
<path stroke="#6e6e6e" stroke-opacity="0.996" vector-effect="non-scaling-stroke" d="
  M 371.96 477.25
  Q 362.36 480.12 361.23 470.26"
/>
<path stroke="#6e6e6e" stroke-opacity="0.996" vector-effect="non-scaling-stroke" d="
  M 361.29 469.00
  Q 363.71 465.87 368.33 463.85
  C 376.60 460.22 384.67 453.55 394.25 447.99
  Q 397.56 446.07 403.06 440.52"
/>
<path stroke="#6e6e6e" stroke-opacity="0.996" vector-effect="non-scaling-stroke" d="
  M 404.75 438.96
  Q 408.01 437.88 409.75 434.96"
/>
<path stroke="#6e6e6e" stroke-opacity="0.996" vector-effect="non-scaling-stroke" d="
  M 412.05 432.88
  Q 417.28 429.21 420.96 424.00"
/>
<path stroke="#6e6e6e" stroke-opacity="0.996" vector-effect="non-scaling-stroke" d="
  M 425.00 419.96
  Q 427.70 418.08 428.75 414.96"
/>
</g>
<path fill="#000000" d="
  M 368.00 52.54
  Q 368.63 53.89 370.00 53.29
  L 373.74 55.08
  C 381.47 59.78 389.30 64.07 396.67 69.35
  Q 400.17 71.85 404.04 73.75
  L 405.50 74.96
  Q 409.07 79.23 414.04 81.75
  L 415.50 82.96
  Q 416.83 85.95 420.04 86.75
  L 423.50 90.21
  Q 428.66 97.32 435.74 102.58
  L 439.00 105.96
  Q 440.64 109.46 443.75 111.71
  C 447.47 115.33 451.05 120.59 453.17 123.51
  Q 462.48 136.33 470.35 150.04
  Q 472.10 155.52 475.59 160.07
  L 477.25 163.96
  Q 477.78 173.68 467.98 173.46
  Q 464.98 170.64 463.71 167.25
  Q 462.89 163.21 460.00 160.29
  L 456.75 154.68
  Q 453.54 147.23 448.19 139.81
  Q 447.80 139.26 447.46 139.50
  L 446.75 139.04
  Q 446.89 138.96 447.02 138.88
  Q 447.29 138.72 447.14 138.45
  Q 444.60 133.99 440.96 130.30
  L 438.75 127.29
  Q 438.80 125.52 437.00 125.04
  L 435.72 123.85
  Q 435.21 121.77 433.67 120.31
  C 430.53 117.33 427.13 111.47 423.46 109.75
  Q 420.56 105.94 416.75 103.04
  Q 416.34 101.62 415.21 100.74
  C 413.15 99.15 411.28 97.44 408.96 96.25
  L 407.00 94.79
  Q 406.05 91.92 402.96 91.50
  L 401.84 90.25
  Q 399.20 86.85 395.27 85.36
  L 393.50 84.04
  Q 391.51 81.04 387.96 80.25
  L 387.46 79.50
  Q 387.13 78.47 386.22 78.21
  Q 385.92 78.13 385.64 77.97
  L 381.02 75.37
  L 379.00 74.29
  Q 378.20 72.42 376.00 72.29
  L 371.50 69.79
  Q 366.55 66.38 361.00 64.04
  Q 359.64 62.71 359.50 60.79
  Q 360.15 59.04 359.71 57.25
  L 360.00 56.46
  L 362.00 54.04
  Q 364.64 52.11 368.00 52.54
  Z"
/>
<path fill="#dddddd" fill-opacity="0.992" d="
  M 368.00 52.54
  L 370.00 53.29
  Q 368.63 53.89 368.00 52.54
  Z"
/>
<path fill="#dddddd" fill-opacity="0.992" d="
  M 362.00 54.04
  L 360.00 56.46
  Q 360.28 54.68 362.00 54.04
  Z"
/>
<path fill="#dddddd" fill-opacity="0.992" d="
  M 373.74 55.08
  C 384.50 59.72 394.96 66.95 404.04 73.75
  Q 400.17 71.85 396.67 69.35
  C 389.30 64.07 381.47 59.78 373.74 55.08
  Z"
/>
<path fill="#dddddd" fill-opacity="0.992" d="
  M 359.71 57.25
  Q 360.15 59.04 359.50 60.79
  Q 358.79 58.97 359.71 57.25
  Z"
/>
<path fill="#dddddd" fill-opacity="0.992" d="
  M 361.00 64.04
  Q 366.55 66.38 371.50 69.79
  Q 365.73 67.84 361.00 64.04
  Z"
/>
<path fill="#dddddd" fill-opacity="0.992" d="
  M 376.00 72.29
  Q 378.20 72.42 379.00 74.29
  Q 377.19 73.74 376.00 72.29
  Z"
/>
<path fill="#dddddd" fill-opacity="0.992" d="
  M 405.50 74.96
  Q 410.11 77.93 414.04 81.75
  Q 409.07 79.23 405.50 74.96
  Z"
/>
<path fill="#dddddd" fill-opacity="0.992" d="
  M 387.46 79.50
  Q 383.93 77.99 381.02 75.37
  L 385.64 77.97
  Q 385.92 78.13 386.22 78.21
  Q 387.13 78.47 387.46 79.50
  Z"
/>
<path fill="#dddddd" fill-opacity="0.992" d="
  M 393.50 84.04
  L 387.96 80.25
  Q 391.51 81.04 393.50 84.04
  Z"
/>
<path fill="#dddddd" fill-opacity="0.992" d="
  M 278.00 84.53
  L 263.49 83.51
  C 266.18 83.16 274.78 81.86 278.00 84.53
  Z"
/>
<path fill="#dddddd" fill-opacity="0.992" d="
  M 415.50 82.96
  L 420.04 86.75
  Q 416.83 85.95 415.50 82.96
  Z"
/>
<path fill="#dddddd" fill-opacity="0.992" d="
  M 254.75 83.66
  Q 213.87 84.99 179.44 101.44
  Q 161.22 110.15 141.52 125.84
  Q 143.48 123.15 147.08 120.58
  Q 154.59 115.23 162.26 110.09
  C 167.40 106.64 172.80 104.18 178.36 101.44
  Q 208.73 86.47 243.77 83.49
  Q 250.21 82.94 254.75 83.66
  Z"
/>
<path fill="#000000" d="
  M 263.49 83.51
  L 278.00 84.53
  Q 279.04 85.18 279.96 84.25
  L 285.84 85.44
  Q 286.21 85.51 286.25 85.14
  Q 286.27 84.97 286.25 84.79
  L 286.64 85.16
  Q 287.00 85.50 287.45 85.29
  L 288.00 85.04
  Q 287.95 85.60 288.32 85.66
  C 317.54 90.50 343.83 101.79 367.59 118.96
  Q 367.75 119.08 367.90 118.96
  Q 368.03 118.88 368.04 118.75
  L 369.25 119.71
  Q 369.87 121.72 372.04 121.75
  L 373.50 122.96
  Q 374.39 125.35 377.04 125.75
  L 379.50 127.96
  Q 380.56 129.99 382.79 130.50
  L 384.25 131.96
  Q 387.14 136.57 391.75 139.59
  L 393.50 142.96
  Q 392.80 144.07 393.29 145.25
  L 391.75 148.29
  C 391.54 148.22 384.74 156.25 383.97 157.03
  C 381.35 159.69 377.52 161.21 375.04 165.00
  L 369.38 169.50
  A 1.83 1.82 48.7 0 1 366.94 169.34
  C 360.61 162.89 353.99 155.95 346.99 150.68
  C 278.30 98.88 184.73 116.34 136.86 187.32
  C 75.72 277.95 133.40 396.16 239.26 411.00
  C 308.53 420.71 371.40 380.10 396.18 315.74
  Q 396.41 315.13 397.01 315.40
  L 397.92 315.82
  Q 398.34 316.01 398.72 315.75
  C 400.41 314.61 400.88 316.82 402.01 316.37
  Q 402.42 316.21 402.78 316.46
  Q 405.17 318.15 407.96 318.62
  Q 416.12 322.74 424.97 324.93
  C 429.24 327.38 431.23 329.38 429.29 334.35
  Q 426.80 340.75 423.96 347.00
  Q 422.12 348.03 422.44 350.08
  Q 420.96 352.19 420.46 354.75
  Q 419.06 355.08 419.50 356.29
  L 410.96 369.25
  Q 409.05 370.76 408.25 373.04
  Q 406.11 375.36 405.04 378.17
  Q 402.58 378.98 402.00 381.46
  Q 401.21 381.68 401.46 382.75
  Q 399.45 383.89 398.50 386.00
  Q 396.78 386.46 396.28 388.01
  Q 396.13 388.47 395.79 388.81
  Q 388.55 395.99 381.28 403.11
  C 379.32 405.03 375.77 407.10 373.79 410.25
  L 372.96 410.75
  C 369.41 412.56 366.80 415.07 363.30 417.08
  Q 361.47 418.13 360.04 419.75
  L 358.00 421.29
  Q 355.17 421.63 354.00 424.04
  L 352.71 424.75
  Q 349.37 425.32 347.04 427.75
  L 332.00 435.04
  Q 328.13 435.73 325.00 438.04
  L 311.61 442.23
  Q 310.99 442.42 311.37 442.95
  Q 311.49 443.10 311.57 443.25
  Q 312.15 444.23 311.22 443.59
  Q 310.27 442.93 309.25 443.29
  Q 307.74 442.81 307.00 443.96
  Q 305.43 443.78 304.25 444.71
  L 303.58 444.50
  Q 303.30 444.41 303.16 444.66
  L 303.00 444.96
  L 302.00 445.04
  Q 300.22 444.74 299.00 445.96
  Q 296.13 445.90 293.50 447.04
  L 291.04 447.25
  L 289.96 447.25
  Q 288.23 446.75 288.25 447.96
  L 283.00 448.29
  L 273.86 449.88
  Q 273.50 448.93 272.50 449.46
  Q 269.87 448.57 267.75 450.04
  Q 261.89 450.57 256.05 449.94
  C 253.96 449.71 251.94 450.17 249.80 449.91
  L 235.00 448.29
  L 234.21 448.75
  Q 232.71 447.32 230.75 448.29
  Q 227.73 447.08 224.50 446.96
  Q 222.80 445.60 220.71 446.25
  L 219.00 445.96
  Q 218.93 445.87 218.89 445.71
  Q 218.79 445.32 218.39 445.39
  L 217.79 445.50
  Q 216.43 444.66 214.75 444.96
  L 213.79 444.50
  L 210.50 444.21
  Q 210.54 444.08 210.65 443.97
  Q 210.87 443.76 210.65 443.55
  Q 209.89 442.81 209.00 443.29
  L 208.00 442.96
  Q 207.03 441.36 205.25 442.04
  L 204.29 442.00
  Q 203.62 440.40 202.00 441.04
  L 201.29 441.00
  Q 200.54 439.51 198.75 440.04
  L 198.00 439.96
  Q 197.26 438.54 195.79 439.50
  Q 195.53 438.26 194.25 438.54
  Q 192.71 436.85 190.96 438.00
  Q 188.07 435.25 184.07 434.62
  Q 177.23 430.22 169.81 426.91
  L 166.00 425.21
  Q 165.10 423.12 162.75 423.21
  L 152.61 416.59
  Q 152.34 416.41 152.01 416.35
  Q 150.47 416.05 149.69 414.65
  Q 149.43 414.20 148.97 413.97
  Q 146.15 412.58 144.00 410.29
  Q 143.10 408.36 140.96 408.25
  Q 139.98 407.59 139.46 406.65
  Q 136.78 403.42 133.25 401.29
  L 129.75 397.79
  Q 129.22 395.61 127.00 395.04
  L 120.75 388.79
  Q 119.23 385.33 115.96 383.50
  L 110.50 376.79
  Q 110.10 373.93 107.50 372.50
  Q 107.49 370.81 106.00 370.29
  L 104.75 369.04
  Q 105.51 367.50 103.75 366.79
  L 103.00 366.04
  Q 103.06 365.97 103.12 365.90
  Q 103.15 365.87 103.11 365.58
  Q 102.97 364.43 101.96 364.50
  L 100.89 363.01
  Q 99.44 358.06 96.03 354.26
  L 89.25 340.54
  Q 89.19 338.17 87.29 336.75
  L 84.68 329.74
  Q 84.25 325.99 82.75 322.50
  Q 82.56 322.05 82.00 322.29
  L 81.50 320.29
  Q 81.74 318.24 80.29 316.75
  Q 79.29 314.88 79.29 312.75
  Q 79.56 311.19 78.50 309.96
  L 77.29 304.00
  Q 77.58 301.76 76.50 299.71
  L 76.29 299.00
  Q 76.47 299.05 76.64 298.96
  Q 76.95 298.79 76.84 298.47
  C 75.39 294.05 75.91 289.49 74.25 284.96
  L 74.25 282.79
  C 74.36 277.36 73.72 272.03 73.98 266.74
  Q 74.30 260.23 74.25 253.71
  L 74.25 251.54
  Q 75.84 247.78 75.25 243.71
  L 75.29 242.75
  L 77.38 232.48
  Q 77.42 232.26 77.25 232.12
  Q 77.14 232.03 77.00 231.96
  L 77.33 231.03
  L 82.29 212.75
  L 83.29 208.75
  Q 85.43 207.05 85.29 204.25
  L 88.29 196.00
  Q 91.31 192.56 92.62 188.12
  Q 92.64 188.03 92.55 188.01
  Q 92.43 187.98 92.29 188.00
  L 93.54 185.50
  Q 93.68 185.52 93.82 185.51
  Q 94.06 185.50 94.18 185.28
  L 101.08 171.98
  Q 101.30 171.42 101.75 170.96
  Q 103.32 170.51 103.00 168.96
  L 103.46 168.25
  Q 105.93 166.65 106.50 163.71
  L 110.00 158.96
  L 117.25 149.79
  L 132.00 133.96
  Q 136.06 131.37 139.21 127.75
  L 141.52 125.84
  Q 161.22 110.15 179.44 101.44
  Q 213.87 84.99 254.75 83.66
  L 263.49 83.51
  Z"
/>
<path fill="#dddddd" fill-opacity="0.992" d="
  M 286.25 84.79
  Q 286.27 84.97 286.25 85.14
  Q 286.21 85.51 285.84 85.44
  L 279.96 84.25
  Q 283.18 83.63 286.25 84.79
  Z"
/>
<path fill="#dddddd" fill-opacity="0.992" d="
  M 368.04 118.75
  Q 368.03 118.88 367.90 118.96
  Q 367.75 119.08 367.59 118.96
  C 343.83 101.79 317.54 90.50 288.32 85.66
  Q 287.95 85.60 288.00 85.04
  Q 288.41 84.65 289.00 84.76
  C 318.37 90.02 346.16 101.55 368.04 118.75
  Z"
/>
<path fill="#dddddd" fill-opacity="0.992" d="
  M 401.84 90.25
  Q 398.17 88.31 395.27 85.36
  Q 399.20 86.85 401.84 90.25
  Z"
/>
<path fill="#dddddd" fill-opacity="0.992" d="
  M 423.50 90.21
  L 435.74 102.58
  Q 428.66 97.32 423.50 90.21
  Z"
/>
<path fill="#dddddd" fill-opacity="0.992" d="
  M 407.00 94.79
  L 402.96 91.50
  Q 406.05 91.92 407.00 94.79
  Z"
/>
<path fill="#dddddd" fill-opacity="0.992" d="
  M 416.75 103.04
  L 408.96 96.25
  C 411.28 97.44 413.15 99.15 415.21 100.74
  Q 416.34 101.62 416.75 103.04
  Z"
/>
<path fill="#dddddd" fill-opacity="0.992" d="
  M 439.00 105.96
  L 443.75 111.71
  Q 440.64 109.46 439.00 105.96
  Z"
/>
<path fill="#dddddd" fill-opacity="0.992" d="
  M 435.72 123.85
  L 423.46 109.75
  C 427.13 111.47 430.53 117.33 433.67 120.31
  Q 435.21 121.77 435.72 123.85
  Z"
/>
<path fill="#dddddd" fill-opacity="0.992" d="
  M 369.25 119.71
  Q 370.96 120.29 372.04 121.75
  Q 369.87 121.72 369.25 119.71
  Z"
/>
<path fill="#dddddd" fill-opacity="0.992" d="
  M 373.50 122.96
  Q 375.66 123.85 377.04 125.75
  Q 374.39 125.35 373.50 122.96
  Z"
/>
<path fill="#dddddd" fill-opacity="0.992" d="
  M 437.00 125.04
  Q 438.80 125.52 438.75 127.29
  L 437.00 125.04
  Z"
/>
<path fill="#dddddd" fill-opacity="0.992" d="
  M 139.21 127.75
  Q 136.06 131.37 132.00 133.96
  Q 134.80 129.92 139.21 127.75
  Z"
/>
<path fill="#dddddd" fill-opacity="0.992" d="
  M 379.50 127.96
  Q 381.53 128.71 382.79 130.50
  Q 380.56 129.99 379.50 127.96
  Z"
/>
<path fill="#dddddd" fill-opacity="0.992" d="
  M 440.96 130.30
  Q 444.60 133.99 447.14 138.45
  Q 447.29 138.72 447.02 138.88
  Q 446.89 138.96 446.75 139.04
  L 440.96 130.30
  Z"
/>
<path fill="#dddddd" fill-opacity="0.992" d="
  M 384.25 131.96
  L 391.75 139.59
  Q 387.14 136.57 384.25 131.96
  Z"
/>
<path fill="#dddddd" fill-opacity="0.992" d="
  M 456.75 154.68
  L 447.46 139.50
  Q 447.80 139.26 448.19 139.81
  Q 453.54 147.23 456.75 154.68
  Z"
/>
<path fill="#dddddd" fill-opacity="0.992" d="
  M 393.50 142.96
  Q 394.52 144.19 393.29 145.25
  Q 392.80 144.07 393.50 142.96
  Z"
/>
<path fill="#dddddd" fill-opacity="0.992" d="
  M 391.75 148.29
  C 387.94 155.38 382.44 159.38 375.04 165.00
  C 377.52 161.21 381.35 159.69 383.97 157.03
  C 384.74 156.25 391.54 148.22 391.75 148.29
  Z"
/>
<path fill="#dddddd" fill-opacity="0.992" d="
  M 117.25 149.79
  L 110.00 158.96
  Q 112.83 153.75 117.25 149.79
  Z"
/>
<path fill="#dddddd" fill-opacity="0.992" d="
  M 470.35 150.04
  Q 473.52 154.79 475.59 160.07
  Q 472.10 155.52 470.35 150.04
  Z"
/>
<path fill="#dddddd" fill-opacity="0.992" d="
  M 460.00 160.29
  Q 462.89 163.21 463.71 167.25
  Q 461.36 164.03 460.00 160.29
  Z"
/>
<path fill="#dddddd" fill-opacity="0.992" d="
  M 106.50 163.71
  Q 105.93 166.65 103.46 168.25
  L 106.50 163.71
  Z"
/>
<path fill="#dddddd" fill-opacity="0.992" d="
  M 477.25 163.96
  Q 478.66 165.84 477.72 168.29
  Q 474.98 175.43 467.98 173.46
  Q 477.78 173.68 477.25 163.96
  Z"
/>
<path fill="#dddddd" fill-opacity="0.992" d="
  M 103.00 168.96
  Q 103.32 170.51 101.75 170.96
  L 103.00 168.96
  Z"
/>
<path fill="#dddddd" fill-opacity="0.992" d="
  M 101.08 171.98
  L 94.18 185.28
  Q 94.06 185.50 93.82 185.51
  Q 93.68 185.52 93.54 185.50
  Q 96.63 178.39 101.08 171.98
  Z"
/>
<path fill="#dddddd" fill-opacity="0.992" d="
  M 92.29 188.00
  Q 92.43 187.98 92.55 188.01
  Q 92.64 188.03 92.62 188.12
  Q 91.31 192.56 88.29 196.00
  L 92.29 188.00
  Z"
/>
<path fill="#000000" d="
  M 233.0799 236.3943
  A 36.85 36.47 0.1 0 1 196.1663 272.7999
  A 36.85 36.47 0.1 0 1 159.3801 236.2657
  A 36.85 36.47 0.1 0 1 196.2937 199.8601
  A 36.85 36.47 0.1 0 1 233.0799 236.3943
  Z
  M 212.24 236.52
  A 16.09 16.09 0.0 0 0 196.15 220.43
  A 16.09 16.09 0.0 0 0 180.06 236.52
  A 16.09 16.09 0.0 0 0 196.15 252.61
  A 16.09 16.09 0.0 0 0 212.24 236.52
  Z"
/>
<path fill="#dddddd" fill-opacity="0.992" d="
  M 85.29 204.25
  Q 85.43 207.05 83.29 208.75
  L 85.29 204.25
  Z"
/>
<path fill="#000000" d="
  M 349.7650 232.6876
  A 27.32 26.91 -10.7 0 1 327.9163 264.2021
  A 27.32 26.91 -10.7 0 1 296.0750 242.8324
  A 27.32 26.91 -10.7 0 1 317.9237 211.3179
  A 27.32 26.91 -10.7 0 1 349.7650 232.6876
  Z
  M 333.13 237.71
  A 10.11 10.11 0.0 0 0 323.02 227.60
  A 10.11 10.11 0.0 0 0 312.91 237.71
  A 10.11 10.11 0.0 0 0 323.02 247.82
  A 10.11 10.11 0.0 0 0 333.13 237.71
  Z"
/>
<path fill="#dddddd" fill-opacity="0.992" d="
  M 82.29 212.75
  L 77.33 231.03
  Q 78.38 221.49 82.29 212.75
  Z"
/>
<path fill="#dddddd" fill-opacity="0.992" d="
  M 77.00 231.96
  Q 77.14 232.03 77.25 232.12
  Q 77.42 232.26 77.38 232.48
  L 75.29 242.75
  Q 75.26 237.22 77.00 231.96
  Z"
/>
<path fill="#dddddd" fill-opacity="0.992" d="
  M 75.25 243.71
  Q 75.84 247.78 74.25 251.54
  Q 73.57 247.48 75.25 243.71
  Z"
/>
<path fill="#dddddd" fill-opacity="0.992" d="
  M 74.25 253.71
  Q 74.30 260.23 73.98 266.74
  C 73.72 272.03 74.36 277.36 74.25 282.79
  Q 73.86 282.32 73.81 281.94
  Q 71.90 267.79 74.25 253.71
  Z"
/>
<path fill="#dddddd" fill-opacity="0.992" d="
  M 74.25 284.96
  C 75.91 289.49 75.39 294.05 76.84 298.47
  Q 76.95 298.79 76.64 298.96
  Q 76.47 299.05 76.29 299.00
  Q 75.37 296.82 75.19 294.53
  C 74.93 291.20 73.77 288.31 74.25 284.96
  Z"
/>
<path fill="#dddddd" fill-opacity="0.992" d="
  M 76.50 299.71
  Q 77.58 301.76 77.29 304.00
  Q 76.09 301.98 76.50 299.71
  Z"
/>
<path fill="#dddddd" fill-opacity="0.992" d="
  M 78.50 309.96
  Q 79.56 311.19 79.29 312.75
  Q 77.92 311.61 78.50 309.96
  Z"
/>
<path fill="#dddddd" fill-opacity="0.992" d="
  M 80.29 316.75
  Q 81.74 318.24 81.50 320.29
  Q 80.07 318.81 80.29 316.75
  Z"
/>
<path fill="#000000" d="
  M 299.55 316.86
  C 304.90 317.76 305.99 322.16 304.97 327.07
  C 304.23 330.68 303.41 330.73 300.22 332.89
  C 284.26 343.75 265.27 347.42 246.32 344.53
  C 234.73 342.76 223.37 337.06 213.97 330.58
  Q 213.57 330.30 213.41 329.84
  C 209.77 318.93 218.84 312.93 228.12 319.02
  C 245.52 330.45 270.98 332.17 289.15 319.88
  C 293.05 317.24 295.29 316.13 299.55 316.86
  Z"
/>
<path fill="#dddddd" fill-opacity="0.992" d="
  M 407.96 318.62
  Q 416.69 321.16 424.97 324.93
  Q 416.12 322.74 407.96 318.62
  Z"
/>
<path fill="#dddddd" fill-opacity="0.992" d="
  M 82.00 322.29
  Q 82.56 322.05 82.75 322.50
  Q 84.25 325.99 84.68 329.74
  L 82.00 322.29
  Z"
/>
<path fill="#dddddd" fill-opacity="0.992" d="
  M 87.29 336.75
  Q 89.19 338.17 89.25 340.54
  Q 87.58 339.00 87.29 336.75
  Z"
/>
<path fill="#dddddd" fill-opacity="0.992" d="
  M 423.96 347.00
  Q 423.85 348.76 422.44 350.08
  Q 422.12 348.03 423.96 347.00
  Z"
/>
<path fill="#dddddd" fill-opacity="0.992" d="
  M 96.03 354.26
  Q 99.44 358.06 100.89 363.01
  Q 97.70 358.99 96.03 354.26
  Z"
/>
<path fill="#dddddd" fill-opacity="0.992" d="
  M 420.46 354.75
  Q 420.50 355.82 419.50 356.29
  Q 419.06 355.08 420.46 354.75
  Z"
/>
<path fill="#dddddd" fill-opacity="0.992" d="
  M 103.00 366.04
  L 101.96 364.50
  Q 102.97 364.43 103.11 365.58
  Q 103.15 365.87 103.12 365.90
  Q 103.06 365.97 103.00 366.04
  Z"
/>
<path fill="#dddddd" fill-opacity="0.992" d="
  M 103.75 366.79
  Q 105.51 367.50 104.75 369.04
  L 103.75 366.79
  Z"
/>
<path fill="#dddddd" fill-opacity="0.992" d="
  M 410.96 369.25
  Q 411.06 372.11 408.25 373.04
  Q 409.05 370.76 410.96 369.25
  Z"
/>
<path fill="#dddddd" fill-opacity="0.992" d="
  M 106.00 370.29
  Q 107.49 370.81 107.50 372.50
  Q 106.11 371.82 106.00 370.29
  Z"
/>
<path fill="#dddddd" fill-opacity="0.992" d="
  M 107.50 372.50
  Q 110.10 373.93 110.50 376.79
  L 107.50 372.50
  Z"
/>
<path fill="#dddddd" fill-opacity="0.992" d="
  M 405.04 378.17
  Q 404.64 380.93 402.00 381.46
  Q 402.58 378.98 405.04 378.17
  Z"
/>
<path fill="#dddddd" fill-opacity="0.992" d="
  M 401.46 382.75
  Q 401.24 385.35 398.50 386.00
  Q 399.45 383.89 401.46 382.75
  Z"
/>
<path fill="#dddddd" fill-opacity="0.992" d="
  M 120.75 388.79
  Q 117.95 386.50 115.96 383.50
  Q 119.23 385.33 120.75 388.79
  Z"
/>
<path fill="#dddddd" fill-opacity="0.992" d="
  M 398.50 386.00
  C 397.01 387.47 396.44 389.41 395.23 390.79
  Q 390.50 396.21 385.26 401.17
  C 382.59 403.70 378.51 405.87 375.80 409.04
  Q 374.89 410.11 373.79 410.25
  C 375.77 407.10 379.32 405.03 381.28 403.11
  Q 388.55 395.99 395.79 388.81
  Q 396.13 388.47 396.28 388.01
  Q 396.78 386.46 398.50 386.00
  Z"
/>
<path fill="#dddddd" fill-opacity="0.992" d="
  M 127.00 395.04
  Q 129.22 395.61 129.75 397.79
  L 127.00 395.04
  Z"
/>
<path fill="#dddddd" fill-opacity="0.992" d="
  M 133.25 401.29
  Q 136.78 403.42 139.46 406.65
  Q 135.62 404.65 133.25 401.29
  Z"
/>
<path fill="#dddddd" fill-opacity="0.992" d="
  M 144.00 410.29
  Q 142.20 409.68 140.96 408.25
  Q 143.10 408.36 144.00 410.29
  Z"
/>
<path fill="#dddddd" fill-opacity="0.992" d="
  M 441.04 409.50
  Q 434.47 407.38 431.04 413.30
  Q 430.62 414.03 429.79 414.00
  C 431.86 410.49 437.19 405.60 441.04 409.50
  Z"
/>
<path fill="#000000" d="
  M 441.04 409.50
  L 443.00 410.96
  Q 444.23 414.00 444.21 417.25
  L 443.96 418.00
  L 439.15 423.95
  Q 437.62 425.20 437.46 427.00
  Q 436.29 427.09 435.96 428.25
  Q 434.39 428.59 433.96 430.25
  Q 431.59 431.35 430.54 433.75
  L 430.52 434.77
  Q 425.17 439.22 419.94 443.69
  Q 418.32 445.07 417.79 446.50
  L 417.00 447.29
  Q 412.39 449.91 408.84 453.86
  Q 408.73 453.98 408.84 454.10
  Q 408.92 454.20 409.00 454.29
  L 408.50 454.54
  Q 406.66 454.86 406.00 456.29
  L 404.75 457.29
  Q 401.24 458.12 400.03 461.56
  C 398.60 460.52 396.06 463.04 394.96 464.25
  Q 394.50 464.41 393.93 464.34
  Q 391.32 464.01 393.41 465.10
  Q 393.74 465.27 393.75 465.46
  L 391.59 466.39
  Q 387.77 467.31 385.00 469.96
  L 380.68 472.23
  Q 380.31 472.43 380.44 472.83
  L 380.56 473.19
  Q 380.69 473.56 380.30 473.50
  L 379.00 473.29
  Q 376.29 473.91 374.50 475.96
  L 371.96 477.25
  Q 362.36 480.12 361.23 470.26
  L 361.29 469.00
  Q 363.71 465.87 368.33 463.85
  C 376.60 460.22 384.67 453.55 394.25 447.99
  Q 397.56 446.07 403.06 440.52
  L 404.75 438.96
  Q 408.01 437.88 409.75 434.96
  L 412.05 432.88
  Q 417.28 429.21 420.96 424.00
  L 425.00 419.96
  Q 427.70 418.08 428.75 414.96
  L 429.79 414.00
  Q 430.62 414.03 431.04 413.30
  Q 434.47 407.38 441.04 409.50
  Z"
/>
<path fill="#dddddd" fill-opacity="0.992" d="
  M 372.96 410.75
  C 372.10 413.59 368.03 414.35 365.88 416.22
  C 363.86 417.97 362.20 418.58 360.04 419.75
  Q 361.47 418.13 363.30 417.08
  C 366.80 415.07 369.41 412.56 372.96 410.75
  Z"
/>
<path fill="#dddddd" fill-opacity="0.992" d="
  M 443.00 410.96
  Q 445.68 413.66 444.21 417.25
  Q 444.23 414.00 443.00 410.96
  Z"
/>
<path fill="#dddddd" fill-opacity="0.992" d="
  M 428.75 414.96
  Q 427.70 418.08 425.00 419.96
  L 428.75 414.96
  Z"
/>
<path fill="#dddddd" fill-opacity="0.992" d="
  M 443.96 418.00
  Q 443.34 422.45 439.15 423.95
  L 443.96 418.00
  Z"
/>
<path fill="#dddddd" fill-opacity="0.992" d="
  M 358.00 421.29
  L 354.00 424.04
  Q 355.17 421.63 358.00 421.29
  Z"
/>
<path fill="#dddddd" fill-opacity="0.992" d="
  M 166.00 425.21
  L 162.75 423.21
  Q 165.10 423.12 166.00 425.21
  Z"
/>
<path fill="#dddddd" fill-opacity="0.992" d="
  M 420.96 424.00
  Q 417.28 429.21 412.05 432.88
  Q 416.15 428.03 420.96 424.00
  Z"
/>
<path fill="#dddddd" fill-opacity="0.992" d="
  M 352.71 424.75
  Q 352.76 424.91 352.76 425.06
  Q 352.76 425.43 352.42 425.57
  L 347.04 427.75
  Q 349.37 425.32 352.71 424.75
  Z"
/>
<path fill="#dddddd" fill-opacity="0.992" d="
  M 169.81 426.91
  Q 177.23 430.22 184.07 434.62
  Q 176.38 431.81 169.81 426.91
  Z"
/>
<path fill="#dddddd" fill-opacity="0.992" d="
  M 437.46 427.00
  Q 437.46 427.98 437.06 428.82
  Q 436.40 430.22 436.06 428.71
  L 435.96 428.25
  Q 436.29 427.09 437.46 427.00
  Z"
/>
<path fill="#dddddd" fill-opacity="0.992" d="
  M 433.96 430.25
  Q 432.78 431.41 432.42 432.97
  Q 432.33 433.37 431.91 433.34
  Q 431.18 433.29 430.54 433.75
  Q 431.59 431.35 433.96 430.25
  Z"
/>
<path fill="#dddddd" fill-opacity="0.992" d="
  M 430.52 434.77
  Q 426.94 439.95 425.22 440.98
  Q 421.23 443.37 417.79 446.50
  Q 418.32 445.07 419.94 443.69
  Q 425.17 439.22 430.52 434.77
  Z"
/>
<path fill="#dddddd" fill-opacity="0.992" d="
  M 332.00 435.04
  Q 328.73 437.09 325.00 438.04
  Q 328.13 435.73 332.00 435.04
  Z"
/>
<path fill="#dddddd" fill-opacity="0.992" d="
  M 409.75 434.96
  Q 408.01 437.88 404.75 438.96
  Q 406.93 436.57 409.75 434.96
  Z"
/>
<path fill="#dddddd" fill-opacity="0.992" d="
  M 194.25 438.54
  L 194.22 439.46
  Q 194.18 440.70 193.49 439.67
  L 192.63 438.41
  Q 192.46 438.16 192.25 438.38
  Q 192.13 438.49 192.02 438.61
  Q 191.61 439.01 191.21 438.60
  Q 190.96 438.34 190.96 438.00
  Q 192.71 436.85 194.25 438.54
  Z"
/>
<path fill="#dddddd" fill-opacity="0.992" d="
  M 198.00 439.96
  L 196.81 440.73
  Q 196.13 441.17 195.97 440.39
  L 195.79 439.50
  Q 197.26 438.54 198.00 439.96
  Z"
/>
<path fill="#dddddd" fill-opacity="0.992" d="
  M 198.75 440.04
  Q 200.54 439.51 201.29 441.00
  Q 201.00 441.68 200.45 442.08
  Q 199.94 442.44 199.57 441.94
  Q 198.95 441.12 198.75 440.04
  Z"
/>
<path fill="#dddddd" fill-opacity="0.992" d="
  M 403.06 440.52
  Q 397.56 446.07 394.25 447.99
  C 384.67 453.55 376.60 460.22 368.33 463.85
  Q 363.71 465.87 361.29 469.00
  Q 362.50 466.01 364.94 464.69
  Q 385.93 453.32 403.06 440.52
  Z"
/>
<path fill="#dddddd" fill-opacity="0.992" d="
  M 204.29 442.00
  Q 203.88 443.40 202.53 442.90
  Q 202.00 442.71 202.00 442.15
  L 202.00 441.04
  Q 203.62 440.40 204.29 442.00
  Z"
/>
<path fill="#dddddd" fill-opacity="0.992" d="
  M 208.00 442.96
  L 206.18 443.90
  Q 205.62 444.19 205.34 443.62
  Q 205.00 442.94 205.25 442.04
  Q 207.03 441.36 208.00 442.96
  Z"
/>
<path fill="#dddddd" fill-opacity="0.992" d="
  M 210.50 444.21
  L 209.96 444.41
  Q 209.39 444.63 208.98 444.18
  Q 208.64 443.80 209.00 443.29
  Q 209.89 442.81 210.65 443.55
  Q 210.87 443.76 210.65 443.97
  Q 210.54 444.08 210.50 444.21
  Z"
/>
<path fill="#dddddd" fill-opacity="0.992" d="
  M 309.25 443.29
  Q 308.32 444.22 307.00 443.96
  Q 307.74 442.81 309.25 443.29
  Z"
/>
<path fill="#dddddd" fill-opacity="0.992" d="
  M 213.79 444.50
  L 214.75 444.96
  L 212.96 445.98
  Q 212.29 446.35 212.05 445.64
  Q 212.00 445.49 211.96 445.35
  Q 211.83 444.86 212.32 444.98
  Q 213.21 445.19 213.79 444.50
  Z"
/>
<path fill="#dddddd" fill-opacity="0.992" d="
  M 304.25 444.71
  Q 307.31 446.48 303.00 444.96
  L 303.16 444.66
  Q 303.30 444.41 303.58 444.50
  L 304.25 444.71
  Z"
/>
<path fill="#dddddd" fill-opacity="0.992" d="
  M 302.00 445.04
  Q 302.43 445.63 302.07 446.11
  Q 301.77 446.51 301.27 446.41
  L 299.00 445.96
  Q 300.22 444.74 302.00 445.04
  Z"
/>
<path fill="#dddddd" fill-opacity="0.992" d="
  M 219.00 445.96
  Q 217.80 447.08 216.29 446.93
  Q 214.97 446.80 216.17 446.25
  L 217.79 445.50
  L 218.39 445.39
  Q 218.79 445.32 218.89 445.71
  Q 218.93 445.87 219.00 445.96
  Z"
/>
<path fill="#dddddd" fill-opacity="0.992" d="
  M 224.50 446.96
  Q 223.09 446.88 221.79 447.37
  Q 221.26 447.57 221.04 447.04
  L 220.71 446.25
  Q 222.80 445.60 224.50 446.96
  Z"
/>
<path fill="#dddddd" fill-opacity="0.992" d="
  M 293.50 447.04
  L 291.82 448.50
  Q 291.41 448.86 291.04 448.45
  Q 290.65 448.00 291.04 447.25
  L 293.50 447.04
  Z"
/>
<path fill="#dddddd" fill-opacity="0.992" d="
  M 289.96 447.25
  Q 289.57 448.38 288.25 447.96
  Q 288.23 446.75 289.96 447.25
  Z"
/>
<path fill="#dddddd" fill-opacity="0.992" d="
  M 417.00 447.29
  C 415.52 449.05 411.12 453.44 409.00 454.29
  Q 408.92 454.20 408.84 454.10
  Q 408.73 453.98 408.84 453.86
  Q 412.39 449.91 417.00 447.29
  Z"
/>
<path fill="#dddddd" fill-opacity="0.992" d="
  M 234.21 448.75
  C 233.51 450.48 231.11 450.26 230.75 448.29
  Q 232.71 447.32 234.21 448.75
  Z"
/>
<path fill="#dddddd" fill-opacity="0.992" d="
  M 235.00 448.29
  L 249.80 449.91
  C 247.93 450.22 235.18 450.61 235.00 448.29
  Z"
/>
<path fill="#dddddd" fill-opacity="0.992" d="
  M 283.00 448.29
  Q 278.78 450.81 273.86 449.88
  L 283.00 448.29
  Z"
/>
<path fill="#dddddd" fill-opacity="0.992" d="
  M 272.50 449.46
  Q 270.22 450.27 267.75 450.04
  Q 269.87 448.57 272.50 449.46
  Z"
/>
<path fill="#dddddd" fill-opacity="0.992" d="
  M 408.50 454.54
  Q 408.57 454.84 408.52 455.10
  Q 408.43 455.56 407.97 455.55
  Q 406.89 455.52 406.00 456.29
  Q 406.66 454.86 408.50 454.54
  Z"
/>
<path fill="#dddddd" fill-opacity="0.992" d="
  M 404.75 457.29
  Q 402.87 459.96 400.03 461.56
  Q 401.24 458.12 404.75 457.29
  Z"
/>
<path fill="#dddddd" fill-opacity="0.992" d="
  M 394.96 464.25
  L 394.77 465.06
  Q 394.65 465.53 394.17 465.49
  L 393.75 465.46
  Q 393.74 465.27 393.41 465.10
  Q 391.32 464.01 393.93 464.34
  Q 394.50 464.41 394.96 464.25
  Z"
/>
<path fill="#dddddd" fill-opacity="0.992" d="
  M 391.59 466.39
  Q 388.62 468.78 385.00 469.96
  Q 387.77 467.31 391.59 466.39
  Z"
/>
<path fill="#dddddd" fill-opacity="0.992" d="
  M 361.23 470.26
  Q 362.36 480.12 371.96 477.25
  C 366.29 481.17 360.45 476.88 361.23 470.26
  Z"
/>
<path fill="#dddddd" fill-opacity="0.992" d="
  M 379.00 473.29
  Q 377.02 475.09 374.50 475.96
  Q 376.29 473.91 379.00 473.29
  Z"
/>
</svg>
