<?xml version="1.0" encoding="UTF-8" standalone="no"?>
<!DOCTYPE svg PUBLIC "-//W3C//DTD SVG 1.1//EN" "http://www.w3.org/Graphics/SVG/1.1/DTD/svg11.dtd">
<svg xmlns="http://www.w3.org/2000/svg" version="1.1" viewBox="0.00 0.00 628.00 593.00">
<g stroke-width="2.00" fill="none" stroke-linecap="butt">
<path stroke="#808080" vector-effect="non-scaling-stroke" d="
  M 251.9315 408.3498
  A 58.58 58.45 73.2 0 0 290.9553 335.3761
  A 58.58 58.45 73.2 0 0 218.0685 296.1902
  A 58.58 58.45 73.2 0 0 179.0447 369.1639
  A 58.58 58.45 73.2 0 0 251.9315 408.3498"
/>
<path stroke="#808080" vector-effect="non-scaling-stroke" d="
  M 434.94 352.29
  A 58.38 58.38 0.0 0 0 376.56 293.91
  A 58.38 58.38 0.0 0 0 318.18 352.29
  A 58.38 58.38 0.0 0 0 376.56 410.67
  A 58.38 58.38 0.0 0 0 434.94 352.29"
/>
<path stroke="#808080" vector-effect="non-scaling-stroke" d="
  M 249.58 429.07
  A 0.21 0.20 87.2 0 0 249.35 429.33
  C 255.30 450.45 273.25 467.68 295.01 471.26
  C 325.20 476.24 352.17 458.49 360.70 429.32
  A 0.25 0.25 0.0 0 0 360.46 429.00
  Q 305.62 429.00 250.81 429.00
  Q 250.70 429.25 249.58 429.07"
/>
<path stroke="#808080" vector-effect="non-scaling-stroke" d="
  M 276.10 338.31
  C 268.88 316.00 246.06 305.33 224.03 309.83
  C 198.69 315.01 184.45 345.09 193.99 368.24
  Q 201.48 386.39 218.40 393.05
  C 253.88 407.03 287.72 374.19 276.10 338.31"
/>
<path stroke="#808080" vector-effect="non-scaling-stroke" d="
  M 420.16 352.40
  A 43.76 43.76 0.0 0 0 376.40 308.64
  A 43.76 43.76 0.0 0 0 332.64 352.40
  A 43.76 43.76 0.0 0 0 376.40 396.16
  A 43.76 43.76 0.0 0 0 420.16 352.40"
/>
<path stroke="#808080" vector-effect="non-scaling-stroke" d="
  M 260.1360 337.2556
  A 10.89 10.44 11.9 0 0 251.6328 324.7944
  A 10.89 10.44 11.9 0 0 238.8240 332.7644
  A 10.89 10.44 11.9 0 0 247.3272 345.2256
  A 10.89 10.44 11.9 0 0 260.1360 337.2556"
/>
<path stroke="#808080" vector-effect="non-scaling-stroke" d="
  M 401.1343 337.2986
  A 10.98 10.65 13.1 0 0 392.8538 324.4372
  A 10.98 10.65 13.1 0 0 379.7457 332.3214
  A 10.98 10.65 13.1 0 0 388.0262 345.1828
  A 10.98 10.65 13.1 0 0 401.1343 337.2986"
/>
</g>
<path fill="#000000" d="
  M 278.96 94.23
  C 286.47 78.86 294.01 63.37 301.97 48.23
  C 303.59 45.14 307.00 44.84 308.55 48.00
  C 382.45 198.41 457.04 348.50 530.15 499.28
  C 533.51 506.21 524.06 505.00 520.58 505.00
  Q 303.42 505.00 86.25 504.79
  C 82.32 504.79 78.37 504.38 80.96 499.08
  C 146.95 364.13 213.05 229.22 278.96 94.23
  Z
  M 251.9315 408.3498
  A 58.58 58.45 73.2 0 0 290.9553 335.3761
  A 58.58 58.45 73.2 0 0 218.0685 296.1902
  A 58.58 58.45 73.2 0 0 179.0447 369.1639
  A 58.58 58.45 73.2 0 0 251.9315 408.3498
  Z
  M 434.94 352.29
  A 58.38 58.38 0.0 0 0 376.56 293.91
  A 58.38 58.38 0.0 0 0 318.18 352.29
  A 58.38 58.38 0.0 0 0 376.56 410.67
  A 58.38 58.38 0.0 0 0 434.94 352.29
  Z
  M 249.58 429.07
  A 0.21 0.20 87.2 0 0 249.35 429.33
  C 255.30 450.45 273.25 467.68 295.01 471.26
  C 325.20 476.24 352.17 458.49 360.70 429.32
  A 0.25 0.25 0.0 0 0 360.46 429.00
  Q 305.62 429.00 250.81 429.00
  Q 250.70 429.25 249.58 429.07
  Z"
/>
<path fill="#ffffff" d="
  M 251.9315 408.3498
  A 58.58 58.45 73.2 0 1 179.0447 369.1639
  A 58.58 58.45 73.2 0 1 218.0685 296.1902
  A 58.58 58.45 73.2 0 1 290.9553 335.3761
  A 58.58 58.45 73.2 0 1 251.9315 408.3498
  Z
  M 276.10 338.31
  C 268.88 316.00 246.06 305.33 224.03 309.83
  C 198.69 315.01 184.45 345.09 193.99 368.24
  Q 201.48 386.39 218.40 393.05
  C 253.88 407.03 287.72 374.19 276.10 338.31
  Z"
/>
<path fill="#ffffff" d="
  M 434.94 352.29
  A 58.38 58.38 0.0 0 1 376.56 410.67
  A 58.38 58.38 0.0 0 1 318.18 352.29
  A 58.38 58.38 0.0 0 1 376.56 293.91
  A 58.38 58.38 0.0 0 1 434.94 352.29
  Z
  M 420.16 352.40
  A 43.76 43.76 0.0 0 0 376.40 308.64
  A 43.76 43.76 0.0 0 0 332.64 352.40
  A 43.76 43.76 0.0 0 0 376.40 396.16
  A 43.76 43.76 0.0 0 0 420.16 352.40
  Z"
/>
<path fill="#000000" d="
  M 224.03 309.83
  C 246.06 305.33 268.88 316.00 276.10 338.31
  C 287.72 374.19 253.88 407.03 218.40 393.05
  Q 201.48 386.39 193.99 368.24
  C 184.45 345.09 198.69 315.01 224.03 309.83
  Z
  M 260.1360 337.2556
  A 10.89 10.44 11.9 0 0 251.6328 324.7944
  A 10.89 10.44 11.9 0 0 238.8240 332.7644
  A 10.89 10.44 11.9 0 0 247.3272 345.2256
  A 10.89 10.44 11.9 0 0 260.1360 337.2556
  Z"
/>
<path fill="#000000" d="
  M 420.16 352.40
  A 43.76 43.76 0.0 0 1 376.40 396.16
  A 43.76 43.76 0.0 0 1 332.64 352.40
  A 43.76 43.76 0.0 0 1 376.40 308.64
  A 43.76 43.76 0.0 0 1 420.16 352.40
  Z
  M 401.1343 337.2986
  A 10.98 10.65 13.1 0 0 392.8538 324.4372
  A 10.98 10.65 13.1 0 0 379.7457 332.3214
  A 10.98 10.65 13.1 0 0 388.0262 345.1828
  A 10.98 10.65 13.1 0 0 401.1343 337.2986
  Z"
/>
<ellipse fill="#ffffff" cx="0.00" cy="0.00" transform="translate(390.44,334.81) rotate(13.1)" rx="10.98" ry="10.65"/>
<ellipse fill="#ffffff" cx="0.00" cy="0.00" transform="translate(249.48,335.01) rotate(11.9)" rx="10.89" ry="10.44"/>
<path fill="#ffffff" d="
  M 249.58 429.07
  Q 250.70 429.25 250.81 429.00
  Q 305.62 429.00 360.46 429.00
  A 0.25 0.25 0.0 0 1 360.70 429.32
  C 352.17 458.49 325.20 476.24 295.01 471.26
  C 273.25 467.68 255.30 450.45 249.35 429.33
  A 0.21 0.20 87.2 0 1 249.58 429.07
  Z"
/>
</svg>
