<?xml version="1.0" encoding="UTF-8" standalone="no"?>
<!DOCTYPE svg PUBLIC "-//W3C//DTD SVG 1.1//EN" "http://www.w3.org/Graphics/SVG/1.1/DTD/svg11.dtd">
<svg xmlns="http://www.w3.org/2000/svg" version="1.1" viewBox="0.00 0.00 405.00 348.00">
<path fill="#7634bf" d="
  M 63.00 240.08
  Q 63.00 159.23 63.00 78.39
  C 63.00 71.31 62.27 64.17 65.02 57.80
  C 71.92 41.87 87.86 30.19 105.60 30.81
  Q 110.96 30.99 111.05 30.99
  Q 200.01 30.99 288.98 31.02
  Q 289.04 31.02 297.50 30.64
  C 317.09 29.76 335.09 43.16 340.10 61.92
  Q 341.43 66.87 341.36 76.30
  Q 340.71 166.82 341.07 257.31
  Q 341.07 257.39 341.29 264.19
  C 341.86 281.57 329.60 296.18 314.22 302.24
  C 309.32 304.17 304.97 304.01 299.72 304.01
  Q 204.79 304.00 109.86 304.00
  Q 109.78 304.00 103.66 304.22
  C 81.76 305.04 64.37 286.28 62.73 265.76
  C 62.17 258.68 63.00 247.97 63.00 240.08
  Z
  M 165.3859 168.0005
  A 37.92 37.40 10.9 0 0 135.2222 124.1047
  A 37.92 37.40 10.9 0 0 90.9141 153.6595
  A 37.92 37.40 10.9 0 0 121.0778 197.5553
  A 37.92 37.40 10.9 0 0 165.3859 168.0005
  Z
  M 312.2948 178.5385
  A 37.72 37.26 28.0 0 0 296.4825 127.9314
  A 37.72 37.26 28.0 0 0 245.6852 143.1215
  A 37.72 37.26 28.0 0 0 261.4975 193.7286
  A 37.72 37.26 28.0 0 0 312.2948 178.5385
  Z
  M 195.75 222.22
  Q 161.20 221.58 128.99 209.27
  C 121.82 206.53 117.53 216.60 125.20 220.08
  C 146.90 229.93 174.37 234.23 198.00 235.11
  C 223.20 236.05 250.23 232.29 273.00 225.03
  C 275.88 224.11 281.13 222.49 282.49 219.38
  C 283.99 215.93 281.01 209.73 276.52 211.33
  C 250.40 220.64 223.29 222.73 195.75 222.22
  Z"
/>
<path fill="#7634bf" d="
  M 32.93 132.90
  C 35.98 126.75 47.01 126.90 47.00 135.79
  Q 46.99 183.56 47.00 231.30
  C 47.00 240.40 32.17 239.35 32.14 230.00
  Q 32.01 184.62 32.00 139.23
  Q 32.00 134.77 32.93 132.90
  Z"
/>
<path fill="#7634bf" d="
  M 357.00 224.58
  Q 357.00 183.00 357.00 141.42
  C 357.00 139.12 356.23 135.04 357.82 132.56
  Q 361.01 127.60 366.35 128.89
  C 371.45 130.13 372.93 133.75 372.95 138.69
  Q 373.06 182.97 372.81 227.25
  C 372.76 237.59 359.28 241.89 357.11 231.16
  C 356.62 228.72 357.00 226.48 357.00 224.58
  Z"
/>
<ellipse fill="#7634bf" cx="0.00" cy="0.00" transform="translate(136.51,176.46) rotate(96.7)" rx="14.21" ry="14.01"/>
<ellipse fill="#7634bf" cx="0.00" cy="0.00" transform="translate(287.10,176.43) rotate(73.0)" rx="14.33" ry="14.10"/>
</svg>
