<?xml version="1.0" encoding="UTF-8" standalone="no"?>
<!DOCTYPE svg PUBLIC "-//W3C//DTD SVG 1.1//EN" "http://www.w3.org/Graphics/SVG/1.1/DTD/svg11.dtd">
<svg xmlns="http://www.w3.org/2000/svg" version="1.1" viewBox="0.00 0.00 800.00 800.00">
<g stroke-width="2.00" fill="none" stroke-linecap="butt">
<path stroke="#f47742" vector-effect="non-scaling-stroke" d="
  M 146.96 257.00
  L 146.56 257.11
  Q 146.02 257.27 146.02 257.83
  C 145.95 270.19 143.85 286.01 150.35 296.42
  Q 174.56 335.21 198.75 374.00
  Q 199.37 374.98 200.21 375.00"
/>
<path stroke="#f7cba5" vector-effect="non-scaling-stroke" d="
  M 200.21 375.00
  Q 200.26 439.59 200.31 504.19
  Q 200.32 510.27 201.95 520.96"
/>
<path stroke="#f47742" vector-effect="non-scaling-stroke" d="
  M 201.95 520.96
  Q 200.81 524.78 201.05 528.72
  C 203.12 562.71 227.48 590.91 260.65 597.65
  Q 267.37 599.01 279.93 599.01
  Q 408.81 599.00 537.69 598.99
  Q 550.92 598.99 557.60 597.73
  Q 578.39 593.82 593.82 579.54
  Q 621.01 554.37 617.36 516.00"
/>
<path stroke="#f7cba5" vector-effect="non-scaling-stroke" d="
  M 617.36 516.00
  Q 617.09 512.91 617.35 509.81
  Q 617.74 505.22 617.74 503.65
  Q 617.78 410.36 617.73 317.07
  Q 617.72 303.39 616.65 297.13
  C 610.62 261.83 579.90 236.28 544.00 236.26
  Q 459.18 236.21 163.56 236.40
  C 152.05 236.41 142.91 245.01 146.96 257.00"
/>
<path stroke="#fcab9c" vector-effect="non-scaling-stroke" d="
  M 617.36 516.00
  Q 613.16 533.58 603.86 546.33
  Q 586.35 570.30 557.66 575.73
  Q 550.81 577.02 537.74 577.02
  Q 406.88 576.98 276.00 577.01
  Q 262.53 577.02 256.07 575.81
  C 227.96 570.57 208.21 548.52 201.95 520.96"
/>
<path stroke="#fcab9c" vector-effect="non-scaling-stroke" d="
  M 200.21 375.00
  C 200.24 369.36 201.65 352.50 199.20 348.20
  Q 173.46 303.07 147.47 258.10
  Q 147.18 257.58 146.96 257.00"
/>
<path stroke="#fcab9c" vector-effect="non-scaling-stroke" d="
  M 261.45 339.80
  Q 269.07 345.58 278.75 345.57
  Q 407.27 345.53 535.79 345.48
  C 544.30 345.48 551.46 344.78 557.41 339.94
  C 565.59 333.28 565.85 321.96 557.99 315.10
  C 551.61 309.53 545.58 309.02 536.14 309.01
  Q 408.59 308.98 281.03 309.02
  C 272.67 309.02 266.15 310.14 260.42 315.40
  C 253.08 322.14 253.47 333.75 261.45 339.80"
/>
<path stroke="#fcab9c" vector-effect="non-scaling-stroke" d="
  M 261.46 412.29
  Q 269.07 418.08 278.75 418.07
  Q 407.45 418.03 536.15 417.98
  C 543.95 417.98 550.94 417.27 556.57 413.11
  C 565.62 406.43 566.21 394.37 557.38 387.33
  C 551.40 382.56 545.89 381.77 537.42 381.77
  Q 408.73 381.72 280.05 381.77
  C 272.11 381.77 265.91 383.14 260.43 388.14
  C 253.06 394.86 253.52 406.25 261.46 412.29"
/>
<path stroke="#fcab9c" vector-effect="non-scaling-stroke" d="
  M 254.85 470.80
  C 253.03 484.11 267.21 490.96 278.25 490.97
  Q 370.23 491.04 462.19 490.98
  C 470.92 490.97 478.16 490.40 484.32 485.59
  C 493.49 478.42 492.49 466.61 483.90 459.58
  Q 477.73 454.52 469.50 454.51
  Q 373.00 454.48 276.50 454.51
  C 266.81 454.51 256.23 460.69 254.85 470.80"
/>
</g>
<path fill="#ee964b" d="
  M 385.31 0.00
  L 414.31 0.00
  C 614.04 7.69 775.48 158.83 797.64 356.60
  C 798.85 367.42 799.32 379.74 800.00 391.31
  L 800.00 415.56
  Q 799.46 422.17 798.99 428.82
  C 791.19 539.47 737.14 643.12 649.75 712.54
  Q 545.69 795.22 410.94 800.00
  L 386.19 800.00
  Q 378.59 799.37 371.02 798.82
  C 176.98 784.73 21.58 633.71 2.14 439.71
  C -0.16 416.73 0.52 392.64 1.57 369.59
  C 1.72 366.28 1.16 362.12 1.47 359.24
  C 22.73 159.90 185.05 8.22 385.31 0.00
  Z
  M 146.96 257.00
  L 146.56 257.11
  Q 146.02 257.27 146.02 257.83
  C 145.95 270.19 143.85 286.01 150.35 296.42
  Q 174.56 335.21 198.75 374.00
  Q 199.37 374.98 200.21 375.00
  Q 200.26 439.59 200.31 504.19
  Q 200.32 510.27 201.95 520.96
  Q 200.81 524.78 201.05 528.72
  C 203.12 562.71 227.48 590.91 260.65 597.65
  Q 267.37 599.01 279.93 599.01
  Q 408.81 599.00 537.69 598.99
  Q 550.92 598.99 557.60 597.73
  Q 578.39 593.82 593.82 579.54
  Q 621.01 554.37 617.36 516.00
  Q 617.09 512.91 617.35 509.81
  Q 617.74 505.22 617.74 503.65
  Q 617.78 410.36 617.73 317.07
  Q 617.72 303.39 616.65 297.13
  C 610.62 261.83 579.90 236.28 544.00 236.26
  Q 459.18 236.21 163.56 236.40
  C 152.05 236.41 142.91 245.01 146.96 257.00
  Z"
/>
<path fill="#ffffff" d="
  M 617.36 516.00
  Q 613.16 533.58 603.86 546.33
  Q 586.35 570.30 557.66 575.73
  Q 550.81 577.02 537.74 577.02
  Q 406.88 576.98 276.00 577.01
  Q 262.53 577.02 256.07 575.81
  C 227.96 570.57 208.21 548.52 201.95 520.96
  Q 200.32 510.27 200.31 504.19
  Q 200.26 439.59 200.21 375.00
  C 200.24 369.36 201.65 352.50 199.20 348.20
  Q 173.46 303.07 147.47 258.10
  Q 147.18 257.58 146.96 257.00
  C 142.91 245.01 152.05 236.41 163.56 236.40
  Q 459.18 236.21 544.00 236.26
  C 579.90 236.28 610.62 261.83 616.65 297.13
  Q 617.72 303.39 617.73 317.07
  Q 617.78 410.36 617.74 503.65
  Q 617.74 505.22 617.35 509.81
  Q 617.09 512.91 617.36 516.00
  Z
  M 261.45 339.80
  Q 269.07 345.58 278.75 345.57
  Q 407.27 345.53 535.79 345.48
  C 544.30 345.48 551.46 344.78 557.41 339.94
  C 565.59 333.28 565.85 321.96 557.99 315.10
  C 551.61 309.53 545.58 309.02 536.14 309.01
  Q 408.59 308.98 281.03 309.02
  C 272.67 309.02 266.15 310.14 260.42 315.40
  C 253.08 322.14 253.47 333.75 261.45 339.80
  Z
  M 261.46 412.29
  Q 269.07 418.08 278.75 418.07
  Q 407.45 418.03 536.15 417.98
  C 543.95 417.98 550.94 417.27 556.57 413.11
  C 565.62 406.43 566.21 394.37 557.38 387.33
  C 551.40 382.56 545.89 381.77 537.42 381.77
  Q 408.73 381.72 280.05 381.77
  C 272.11 381.77 265.91 383.14 260.43 388.14
  C 253.06 394.86 253.52 406.25 261.46 412.29
  Z
  M 254.85 470.80
  C 253.03 484.11 267.21 490.96 278.25 490.97
  Q 370.23 491.04 462.19 490.98
  C 470.92 490.97 478.16 490.40 484.32 485.59
  C 493.49 478.42 492.49 466.61 483.90 459.58
  Q 477.73 454.52 469.50 454.51
  Q 373.00 454.48 276.50 454.51
  C 266.81 454.51 256.23 460.69 254.85 470.80
  Z"
/>
<path fill="#f95738" d="
  M 146.96 257.00
  Q 147.18 257.58 147.47 258.10
  Q 173.46 303.07 199.20 348.20
  C 201.65 352.50 200.24 369.36 200.21 375.00
  Q 199.37 374.98 198.75 374.00
  Q 174.56 335.21 150.35 296.42
  C 143.85 286.01 145.95 270.19 146.02 257.83
  Q 146.02 257.27 146.56 257.11
  L 146.96 257.00
  Z"
/>
<path fill="#f95738" d="
  M 261.45 339.80
  C 253.47 333.75 253.08 322.14 260.42 315.40
  C 266.15 310.14 272.67 309.02 281.03 309.02
  Q 408.59 308.98 536.14 309.01
  C 545.58 309.02 551.61 309.53 557.99 315.10
  C 565.85 321.96 565.59 333.28 557.41 339.94
  C 551.46 344.78 544.30 345.48 535.79 345.48
  Q 407.27 345.53 278.75 345.57
  Q 269.07 345.58 261.45 339.80
  Z"
/>
<path fill="#f95738" d="
  M 261.46 412.29
  C 253.52 406.25 253.06 394.86 260.43 388.14
  C 265.91 383.14 272.11 381.77 280.05 381.77
  Q 408.73 381.72 537.42 381.77
  C 545.89 381.77 551.40 382.56 557.38 387.33
  C 566.21 394.37 565.62 406.43 556.57 413.11
  C 550.94 417.27 543.95 417.98 536.15 417.98
  Q 407.45 418.03 278.75 418.07
  Q 269.07 418.08 261.46 412.29
  Z"
/>
<path fill="#f95738" d="
  M 278.25 490.97
  C 267.21 490.96 253.03 484.11 254.85 470.80
  C 256.23 460.69 266.81 454.51 276.50 454.51
  Q 373.00 454.48 469.50 454.51
  Q 477.73 454.52 483.90 459.58
  C 492.49 466.61 493.49 478.42 484.32 485.59
  C 478.16 490.40 470.92 490.97 462.19 490.98
  Q 370.23 491.04 278.25 490.97
  Z"
/>
<path fill="#f95738" d="
  M 617.36 516.00
  Q 621.01 554.37 593.82 579.54
  Q 578.39 593.82 557.60 597.73
  Q 550.92 598.99 537.69 598.99
  Q 408.81 599.00 279.93 599.01
  Q 267.37 599.01 260.65 597.65
  C 227.48 590.91 203.12 562.71 201.05 528.72
  Q 200.81 524.78 201.95 520.96
  C 208.21 548.52 227.96 570.57 256.07 575.81
  Q 262.53 577.02 276.00 577.01
  Q 406.88 576.98 537.74 577.02
  Q 550.81 577.02 557.66 575.73
  Q 586.35 570.30 603.86 546.33
  Q 613.16 533.58 617.36 516.00
  Z"
/>
</svg>
