<?xml version="1.0" encoding="UTF-8" standalone="no"?>
<!DOCTYPE svg PUBLIC "-//W3C//DTD SVG 1.1//EN" "http://www.w3.org/Graphics/SVG/1.1/DTD/svg11.dtd">
<svg xmlns="http://www.w3.org/2000/svg" version="1.1" viewBox="0.00 0.00 800.00 800.00">
<g stroke-width="2.00" fill="none" stroke-linecap="butt">
<path stroke="#70d9d3" vector-effect="non-scaling-stroke" d="
  M 146.53 256.95
  Q 145.72 268.94 145.93 280.91
  C 146.04 287.54 147.18 291.96 150.52 297.24
  Q 169.86 327.90 199.69 375.95
  Q 199.82 376.17 200.00 375.98
  L 200.21 375.75"
/>
<path stroke="#c7fbd3" vector-effect="non-scaling-stroke" d="
  M 200.21 375.75
  Q 200.26 434.24 200.31 492.74
  C 200.32 501.60 200.83 509.91 201.47 518.49"
/>
<path stroke="#70d9d3" vector-effect="non-scaling-stroke" d="
  M 201.47 518.49
  C 197.12 559.68 230.49 598.99 272.75 598.99
  Q 408.98 599.01 545.21 598.99
  C 584.75 598.99 615.35 567.08 617.98 528.99
  Q 618.51 521.36 617.23 514.76"
/>
<path stroke="#c7fbd3" vector-effect="non-scaling-stroke" d="
  M 617.23 514.76
  C 617.12 510.05 617.73 504.92 617.73 500.74
  Q 617.81 410.33 617.70 319.93
  Q 617.68 305.47 616.94 299.97
  Q 613.27 272.64 591.81 253.96
  C 576.77 240.88 559.72 236.25 539.75 236.25
  Q 355.23 236.24 170.70 236.26
  C 156.84 236.26 142.87 239.50 146.53 256.95"
/>
<path stroke="#a8ddff" vector-effect="non-scaling-stroke" d="
  M 617.23 514.76
  C 611.46 545.92 587.64 570.92 556.19 576.03
  Q 550.21 577.00 536.25 577.00
  Q 405.65 577.01 275.06 576.99
  Q 261.58 576.99 255.15 575.74
  C 226.84 570.24 206.81 546.49 201.47 518.49"
/>
<path stroke="#a8ddff" vector-effect="non-scaling-stroke" d="
  M 200.21 375.75
  Q 200.29 363.59 200.24 351.44
  C 200.23 350.06 199.73 349.06 199.08 347.93
  Q 173.05 302.31 146.53 256.95"
/>
<path stroke="#a8ddff" vector-effect="non-scaling-stroke" d="
  M 261.44 339.80
  Q 268.96 345.52 278.50 345.52
  Q 407.15 345.53 535.79 345.48
  C 544.32 345.48 551.44 344.78 557.43 339.93
  Q 565.06 333.76 563.64 325.31
  C 561.91 315.07 551.75 309.02 541.75 309.01
  Q 411.09 308.98 280.44 309.02
  C 272.57 309.02 266.74 310.18 261.07 314.79
  C 253.12 321.28 253.16 333.50 261.44 339.80"
/>
<path stroke="#a8ddff" vector-effect="non-scaling-stroke" d="
  M 280.61 381.78
  C 246.93 381.80 246.88 417.97 280.00 417.98
  Q 407.91 418.03 535.82 417.98
  Q 543.39 417.98 546.51 417.36
  C 566.85 413.29 570.39 390.58 550.23 383.26
  Q 546.16 381.78 536.96 381.77
  Q 408.78 381.71 280.61 381.78"
/>
<path stroke="#a8ddff" vector-effect="non-scaling-stroke" d="
  M 278.96 454.52
  C 246.71 454.54 247.27 490.95 278.25 490.97
  Q 370.87 491.04 463.49 490.98
  Q 470.38 490.97 473.35 490.34
  C 495.44 485.65 497.06 460.66 474.87 455.29
  Q 471.68 454.51 463.08 454.51
  Q 371.02 454.47 278.96 454.52"
/>
</g>
<path fill="#8ff7a7" d="
  M 385.81 0.00
  L 417.56 0.00
  C 627.69 10.40 791.24 176.24 800.00 386.06
  L 800.00 416.06
  C 792.77 586.27 678.77 733.54 516.50 783.02
  Q 465.38 798.61 408.44 800.00
  L 387.19 800.00
  Q 382.70 799.56 378.18 799.33
  C 172.44 788.54 6.36 620.19 0.39 413.57
  Q -0.24 391.77 1.16 364.98
  Q 1.71 354.41 3.04 345.09
  C 30.66 152.09 190.58 7.42 385.81 0.00
  Z
  M 146.53 256.95
  Q 145.72 268.94 145.93 280.91
  C 146.04 287.54 147.18 291.96 150.52 297.24
  Q 169.86 327.90 199.69 375.95
  Q 199.82 376.17 200.00 375.98
  L 200.21 375.75
  Q 200.26 434.24 200.31 492.74
  C 200.32 501.60 200.83 509.91 201.47 518.49
  C 197.12 559.68 230.49 598.99 272.75 598.99
  Q 408.98 599.01 545.21 598.99
  C 584.75 598.99 615.35 567.08 617.98 528.99
  Q 618.51 521.36 617.23 514.76
  C 617.12 510.05 617.73 504.92 617.73 500.74
  Q 617.81 410.33 617.70 319.93
  Q 617.68 305.47 616.94 299.97
  Q 613.27 272.64 591.81 253.96
  C 576.77 240.88 559.72 236.25 539.75 236.25
  Q 355.23 236.24 170.70 236.26
  C 156.84 236.26 142.87 239.50 146.53 256.95
  Z"
/>
<path fill="#ffffff" d="
  M 617.23 514.76
  C 611.46 545.92 587.64 570.92 556.19 576.03
  Q 550.21 577.00 536.25 577.00
  Q 405.65 577.01 275.06 576.99
  Q 261.58 576.99 255.15 575.74
  C 226.84 570.24 206.81 546.49 201.47 518.49
  C 200.83 509.91 200.32 501.60 200.31 492.74
  Q 200.26 434.24 200.21 375.75
  Q 200.29 363.59 200.24 351.44
  C 200.23 350.06 199.73 349.06 199.08 347.93
  Q 173.05 302.31 146.53 256.95
  C 142.87 239.50 156.84 236.26 170.70 236.26
  Q 355.23 236.24 539.75 236.25
  C 559.72 236.25 576.77 240.88 591.81 253.96
  Q 613.27 272.64 616.94 299.97
  Q 617.68 305.47 617.70 319.93
  Q 617.81 410.33 617.73 500.74
  C 617.73 504.92 617.12 510.05 617.23 514.76
  Z
  M 261.44 339.80
  Q 268.96 345.52 278.50 345.52
  Q 407.15 345.53 535.79 345.48
  C 544.32 345.48 551.44 344.78 557.43 339.93
  Q 565.06 333.76 563.64 325.31
  C 561.91 315.07 551.75 309.02 541.75 309.01
  Q 411.09 308.98 280.44 309.02
  C 272.57 309.02 266.74 310.18 261.07 314.79
  C 253.12 321.28 253.16 333.50 261.44 339.80
  Z
  M 280.61 381.78
  C 246.93 381.80 246.88 417.97 280.00 417.98
  Q 407.91 418.03 535.82 417.98
  Q 543.39 417.98 546.51 417.36
  C 566.85 413.29 570.39 390.58 550.23 383.26
  Q 546.16 381.78 536.96 381.77
  Q 408.78 381.71 280.61 381.78
  Z
  M 278.96 454.52
  C 246.71 454.54 247.27 490.95 278.25 490.97
  Q 370.87 491.04 463.49 490.98
  Q 470.38 490.97 473.35 490.34
  C 495.44 485.65 497.06 460.66 474.87 455.29
  Q 471.68 454.51 463.08 454.51
  Q 371.02 454.47 278.96 454.52
  Z"
/>
<path fill="#51bbfe" d="
  M 146.53 256.95
  Q 173.05 302.31 199.08 347.93
  C 199.73 349.06 200.23 350.06 200.24 351.44
  Q 200.29 363.59 200.21 375.75
  L 200.00 375.98
  Q 199.82 376.17 199.69 375.95
  Q 169.86 327.90 150.52 297.24
  C 147.18 291.96 146.04 287.54 145.93 280.91
  Q 145.72 268.94 146.53 256.95
  Z"
/>
<path fill="#51bbfe" d="
  M 261.44 339.80
  C 253.16 333.50 253.12 321.28 261.07 314.79
  C 266.74 310.18 272.57 309.02 280.44 309.02
  Q 411.09 308.98 541.75 309.01
  C 551.75 309.02 561.91 315.07 563.64 325.31
  Q 565.06 333.76 557.43 339.93
  C 551.44 344.78 544.32 345.48 535.79 345.48
  Q 407.15 345.53 278.50 345.52
  Q 268.96 345.52 261.44 339.80
  Z"
/>
<path fill="#51bbfe" d="
  M 280.00 417.98
  C 246.88 417.97 246.93 381.80 280.61 381.78
  Q 408.78 381.71 536.96 381.77
  Q 546.16 381.78 550.23 383.26
  C 570.39 390.58 566.85 413.29 546.51 417.36
  Q 543.39 417.98 535.82 417.98
  Q 407.91 418.03 280.00 417.98
  Z"
/>
<path fill="#51bbfe" d="
  M 278.25 490.97
  C 247.27 490.95 246.71 454.54 278.96 454.52
  Q 371.02 454.47 463.08 454.51
  Q 471.68 454.51 474.87 455.29
  C 497.06 460.66 495.44 485.65 473.35 490.34
  Q 470.38 490.97 463.49 490.98
  Q 370.87 491.04 278.25 490.97
  Z"
/>
<path fill="#51bbfe" d="
  M 617.23 514.76
  Q 618.51 521.36 617.98 528.99
  C 615.35 567.08 584.75 598.99 545.21 598.99
  Q 408.98 599.01 272.75 598.99
  C 230.49 598.99 197.12 559.68 201.47 518.49
  C 206.81 546.49 226.84 570.24 255.15 575.74
  Q 261.58 576.99 275.06 576.99
  Q 405.65 577.01 536.25 577.00
  Q 550.21 577.00 556.19 576.03
  C 587.64 570.92 611.46 545.92 617.23 514.76
  Z"
/>
</svg>
