<?xml version="1.0" encoding="UTF-8" standalone="no"?>
<!DOCTYPE svg PUBLIC "-//W3C//DTD SVG 1.1//EN" "http://www.w3.org/Graphics/SVG/1.1/DTD/svg11.dtd">
<svg xmlns="http://www.w3.org/2000/svg" version="1.1" viewBox="0.00 0.00 800.00 800.00">
<g stroke-width="2.00" fill="none" stroke-linecap="butt">
<path stroke="#b53fac" vector-effect="non-scaling-stroke" d="
  M 796.79 350.25
  Q 796.95 351.17 796.11 351.51
  Q 795.66 351.70 795.59 351.21
  C 778.45 218.70 693.75 101.91 573.26 44.23
  C 415.20 -31.44 223.60 4.69 105.13 134.24
  Q 28.74 217.77 6.47 329.81
  Q 6.39 330.25 5.94 330.25
  L 5.54 330.25"
/>
<path stroke="#b53fac" vector-effect="non-scaling-stroke" d="
  M 796.71 452.25
  C 794.55 453.25 795.33 455.20 795.07 456.85
  Q 778.43 561.34 713.48 643.65
  C 651.70 721.95 559.31 775.92 461.18 790.64
  C 261.25 820.65 72.40 699.45 16.15 506.90
  C 11.53 491.10 8.16 474.58 5.41 458.27
  Q 5.26 457.40 4.29 457.75"
/>
<path stroke="#b53fac" vector-effect="non-scaling-stroke" d="
  M 146.09 255.83
  Q 145.94 269.52 146.00 283.38
  C 146.03 289.42 147.58 292.79 150.60 297.67
  Q 175.11 337.26 200.12 376.57"
/>
<path stroke="#faa4cc" vector-effect="non-scaling-stroke" d="
  M 200.12 376.57
  Q 200.29 438.74 200.31 501.07
  C 200.31 505.92 200.72 510.68 201.04 515.50"
/>
<path stroke="#b53fac" vector-effect="non-scaling-stroke" d="
  M 201.04 515.50
  Q 198.33 541.82 211.00 562.95
  C 223.63 584.00 247.83 599.25 272.75 599.25
  Q 407.47 599.26 542.19 599.24
  C 550.89 599.24 558.52 598.59 565.92 596.15
  C 597.07 585.92 617.56 558.36 618.21 525.24
  Q 618.45 513.47 617.82 507.75"
/>
<path stroke="#faa4cc" vector-effect="non-scaling-stroke" d="
  M 617.82 507.75
  Q 617.70 412.15 617.75 316.56
  Q 617.76 303.31 616.55 296.64
  C 610.27 262.04 580.17 236.22 544.50 236.22
  Q 354.03 236.22 163.56 236.34
  Q 153.65 236.35 148.58 243.06
  Q 144.89 247.94 146.09 255.83"
/>
<path stroke="#bb9adf" vector-effect="non-scaling-stroke" d="
  M 617.82 507.75
  C 615.10 541.22 591.39 569.15 558.35 575.67
  Q 551.69 576.99 538.43 576.99
  Q 405.40 577.01 272.36 576.99
  Q 262.52 576.99 257.32 576.08
  C 226.59 570.73 205.67 546.04 201.04 515.50"
/>
<path stroke="#bb9adf" vector-effect="non-scaling-stroke" d="
  M 200.12 376.57
  Q 200.39 364.17 200.20 351.95
  Q 200.17 349.83 199.11 347.99
  Q 172.67 301.88 146.09 255.83"
/>
<path stroke="#bb9adf" vector-effect="non-scaling-stroke" d="
  M 255.19 325.48
  C 253.66 338.42 266.88 345.25 278.25 345.27
  Q 407.02 345.51 535.78 345.49
  Q 543.73 345.48 547.04 344.77
  C 567.57 340.36 569.85 317.08 549.71 310.33
  Q 545.79 309.02 536.15 309.01
  Q 408.71 308.97 281.29 309.02
  C 270.46 309.03 256.74 312.28 255.19 325.48"
/>
<path stroke="#bb9adf" vector-effect="non-scaling-stroke" d="
  M 255.13 399.27
  C 254.63 411.61 267.40 417.75 278.25 417.77
  Q 407.48 418.01 536.70 417.99
  C 544.32 417.99 550.16 417.27 555.95 413.47
  C 564.41 407.92 566.41 397.39 559.75 389.67
  Q 552.95 381.78 542.25 381.77
  Q 411.52 381.71 280.81 381.78
  C 269.82 381.78 255.69 385.73 255.13 399.27"
/>
<path stroke="#bb9adf" vector-effect="non-scaling-stroke" d="
  M 279.63 454.53
  C 246.83 454.57 246.71 490.69 278.25 490.78
  Q 373.10 491.03 467.93 490.97
  Q 478.11 490.96 485.58 484.35
  C 491.77 478.88 492.48 469.86 487.45 463.31
  C 481.73 455.85 474.40 454.55 464.53 454.54
  Q 372.08 454.44 279.63 454.53"
/>
</g>
<path fill="#7634bf" d="
  M 384.81 0.00
  L 402.31 0.00
  Q 406.31 0.63 410.31 0.00
  L 412.06 0.00
  C 609.03 6.18 772.61 154.46 796.79 350.25
  Q 796.95 351.17 796.11 351.51
  Q 795.66 351.70 795.59 351.21
  C 778.45 218.70 693.75 101.91 573.26 44.23
  C 415.20 -31.44 223.60 4.69 105.13 134.24
  Q 28.74 217.77 6.47 329.81
  Q 6.39 330.25 5.94 330.25
  L 5.54 330.25
  C 35.46 161.37 168.85 32.41 337.32 4.56
  Q 355.03 1.63 384.81 0.00
  Z"
/>
<path fill="#f44998" d="
  M 796.79 350.25
  Q 799.14 371.10 800.00 392.06
  L 800.00 413.56
  Q 799.03 432.97 796.71 452.25
  C 794.55 453.25 795.33 455.20 795.07 456.85
  Q 778.43 561.34 713.48 643.65
  C 651.70 721.95 559.31 775.92 461.18 790.64
  C 261.25 820.65 72.40 699.45 16.15 506.90
  C 11.53 491.10 8.16 474.58 5.41 458.27
  Q 5.26 457.40 4.29 457.75
  C -0.21 425.66 1.00 394.71 1.72 362.49
  Q 2.03 348.71 5.54 330.25
  L 5.94 330.25
  Q 6.39 330.25 6.47 329.81
  Q 28.74 217.77 105.13 134.24
  C 223.60 4.69 415.20 -31.44 573.26 44.23
  C 693.75 101.91 778.45 218.70 795.59 351.21
  Q 795.66 351.70 796.11 351.51
  Q 796.95 351.17 796.79 350.25
  Z
  M 146.09 255.83
  Q 145.94 269.52 146.00 283.38
  C 146.03 289.42 147.58 292.79 150.60 297.67
  Q 175.11 337.26 200.12 376.57
  Q 200.29 438.74 200.31 501.07
  C 200.31 505.92 200.72 510.68 201.04 515.50
  Q 198.33 541.82 211.00 562.95
  C 223.63 584.00 247.83 599.25 272.75 599.25
  Q 407.47 599.26 542.19 599.24
  C 550.89 599.24 558.52 598.59 565.92 596.15
  C 597.07 585.92 617.56 558.36 618.21 525.24
  Q 618.45 513.47 617.82 507.75
  Q 617.70 412.15 617.75 316.56
  Q 617.76 303.31 616.55 296.64
  C 610.27 262.04 580.17 236.22 544.50 236.22
  Q 354.03 236.22 163.56 236.34
  Q 153.65 236.35 148.58 243.06
  Q 144.89 247.94 146.09 255.83
  Z"
/>
<path fill="#ffffff" d="
  M 617.82 507.75
  C 615.10 541.22 591.39 569.15 558.35 575.67
  Q 551.69 576.99 538.43 576.99
  Q 405.40 577.01 272.36 576.99
  Q 262.52 576.99 257.32 576.08
  C 226.59 570.73 205.67 546.04 201.04 515.50
  C 200.72 510.68 200.31 505.92 200.31 501.07
  Q 200.29 438.74 200.12 376.57
  Q 200.39 364.17 200.20 351.95
  Q 200.17 349.83 199.11 347.99
  Q 172.67 301.88 146.09 255.83
  Q 144.89 247.94 148.58 243.06
  Q 153.65 236.35 163.56 236.34
  Q 354.03 236.22 544.50 236.22
  C 580.17 236.22 610.27 262.04 616.55 296.64
  Q 617.76 303.31 617.75 316.56
  Q 617.70 412.15 617.82 507.75
  Z
  M 255.19 325.48
  C 253.66 338.42 266.88 345.25 278.25 345.27
  Q 407.02 345.51 535.78 345.49
  Q 543.73 345.48 547.04 344.77
  C 567.57 340.36 569.85 317.08 549.71 310.33
  Q 545.79 309.02 536.15 309.01
  Q 408.71 308.97 281.29 309.02
  C 270.46 309.03 256.74 312.28 255.19 325.48
  Z
  M 255.13 399.27
  C 254.63 411.61 267.40 417.75 278.25 417.77
  Q 407.48 418.01 536.70 417.99
  C 544.32 417.99 550.16 417.27 555.95 413.47
  C 564.41 407.92 566.41 397.39 559.75 389.67
  Q 552.95 381.78 542.25 381.77
  Q 411.52 381.71 280.81 381.78
  C 269.82 381.78 255.69 385.73 255.13 399.27
  Z
  M 279.63 454.53
  C 246.83 454.57 246.71 490.69 278.25 490.78
  Q 373.10 491.03 467.93 490.97
  Q 478.11 490.96 485.58 484.35
  C 491.77 478.88 492.48 469.86 487.45 463.31
  C 481.73 455.85 474.40 454.55 464.53 454.54
  Q 372.08 454.44 279.63 454.53
  Z"
/>
<path fill="#7634bf" d="
  M 146.09 255.83
  Q 172.67 301.88 199.11 347.99
  Q 200.17 349.83 200.20 351.95
  Q 200.39 364.17 200.12 376.57
  Q 175.11 337.26 150.60 297.67
  C 147.58 292.79 146.03 289.42 146.00 283.38
  Q 145.94 269.52 146.09 255.83
  Z"
/>
<path fill="#7634bf" d="
  M 278.25 345.27
  C 266.88 345.25 253.66 338.42 255.19 325.48
  C 256.74 312.28 270.46 309.03 281.29 309.02
  Q 408.71 308.97 536.15 309.01
  Q 545.79 309.02 549.71 310.33
  C 569.85 317.08 567.57 340.36 547.04 344.77
  Q 543.73 345.48 535.78 345.49
  Q 407.02 345.51 278.25 345.27
  Z"
/>
<path fill="#7634bf" d="
  M 278.25 417.77
  C 267.40 417.75 254.63 411.61 255.13 399.27
  C 255.69 385.73 269.82 381.78 280.81 381.78
  Q 411.52 381.71 542.25 381.77
  Q 552.95 381.78 559.75 389.67
  C 566.41 397.39 564.41 407.92 555.95 413.47
  C 550.16 417.27 544.32 417.99 536.70 417.99
  Q 407.48 418.01 278.25 417.77
  Z"
/>
<path fill="#7634bf" d="
  M 796.71 452.25
  C 782.20 563.18 722.07 661.52 631.37 726.42
  C 566.73 772.67 490.72 797.21 411.44 800.00
  L 388.69 800.00
  Q 369.70 799.01 359.50 797.99
  C 177.28 779.75 30.59 638.80 4.29 457.75
  Q 5.26 457.40 5.41 458.27
  C 8.16 474.58 11.53 491.10 16.15 506.90
  C 72.40 699.45 261.25 820.65 461.18 790.64
  C 559.31 775.92 651.70 721.95 713.48 643.65
  Q 778.43 561.34 795.07 456.85
  C 795.33 455.20 794.55 453.25 796.71 452.25
  Z"
/>
<path fill="#7634bf" d="
  M 278.25 490.78
  C 246.71 490.69 246.83 454.57 279.63 454.53
  Q 372.08 454.44 464.53 454.54
  C 474.40 454.55 481.73 455.85 487.45 463.31
  C 492.48 469.86 491.77 478.88 485.58 484.35
  Q 478.11 490.96 467.93 490.97
  Q 373.10 491.03 278.25 490.78
  Z"
/>
<path fill="#7634bf" d="
  M 617.82 507.75
  Q 618.45 513.47 618.21 525.24
  C 617.56 558.36 597.07 585.92 565.92 596.15
  C 558.52 598.59 550.89 599.24 542.19 599.24
  Q 407.47 599.26 272.75 599.25
  C 247.83 599.25 223.63 584.00 211.00 562.95
  Q 198.33 541.82 201.04 515.50
  C 205.67 546.04 226.59 570.73 257.32 576.08
  Q 262.52 576.99 272.36 576.99
  Q 405.40 577.01 538.43 576.99
  Q 551.69 576.99 558.35 575.67
  C 591.39 569.15 615.10 541.22 617.82 507.75
  Z"
/>
</svg>
