<?xml version="1.0" encoding="UTF-8" standalone="no"?>
<!DOCTYPE svg PUBLIC "-//W3C//DTD SVG 1.1//EN" "http://www.w3.org/Graphics/SVG/1.1/DTD/svg11.dtd">
<svg xmlns="http://www.w3.org/2000/svg" version="1.1" viewBox="0.00 0.00 377.00 424.00">
<g stroke-width="2.00" fill="none" stroke-linecap="butt">
<path stroke="#131313" vector-effect="non-scaling-stroke" d="
  M 263.04 152.75
  C 262.21 167.88 262.29 179.74 258.97 197.17"
/>
<path stroke="#131313" vector-effect="non-scaling-stroke" d="
  M 249.98 225.35
  Q 243.61 235.34 237.72 241.98
  Q 225.48 255.78 208.98 268.03
  C 197.88 276.26 185.61 277.56 172.22 276.20
  C 164.14 275.39 158.30 272.88 151.82 268.43
  C 133.48 255.81 115.36 239.73 106.86 218.96"
/>
<path stroke="#131313" vector-effect="non-scaling-stroke" d="
  M 104.40 213.23
  Q 104.55 211.98 103.50 208.74
  Q 96.68 187.65 95.91 162.50
  Q 95.61 152.85 95.30 143.19"
/>
<path stroke="#131313" vector-effect="non-scaling-stroke" d="
  M 84.75 183.00
  L 87.99 186.07
  Q 88.39 186.44 88.90 186.24
  C 97.22 182.94 86.80 177.09 85.55 173.87
  C 84.37 170.82 86.84 165.29 87.53 162.07
  Q 87.62 161.63 87.45 161.21
  Q 85.47 156.44 81.19 153.52
  A 1.09 1.09 0.0 0 0 79.54 154.09
  C 76.46 163.66 80.10 174.58 84.75 183.00"
/>
<path stroke="#131313" vector-effect="non-scaling-stroke" d="
  M 251.46 245.50
  Q 250.17 245.43 249.87 247.17
  C 244.30 279.99 227.95 319.28 195.24 333.98
  Q 177.52 341.95 160.49 332.21
  C 129.55 314.51 113.79 279.43 108.30 245.65
  A 0.64 0.63 56.7 0 0 107.14 245.41
  C 106.26 246.77 106.92 250.15 106.50 252.04"
/>
<path stroke="#131313" vector-effect="non-scaling-stroke" d="
  M 92.41 145.26
  Q 93.41 150.62 90.65 155.40
  Q 90.41 155.81 90.09 155.46
  C 86.65 151.63 83.33 147.29 77.72 146.94
  Q 77.22 146.91 76.83 147.22
  C 71.90 151.06 74.78 159.04 76.42 164.47
  C 78.25 170.56 80.44 178.00 84.75 183.00
  Q 86.89 188.60 92.85 189.19
  Q 93.44 189.25 93.63 189.81
  Q 94.08 191.18 95.29 192.19"
/>
<path stroke="#131313" vector-effect="non-scaling-stroke" d="
  M 264.03 198.89
  Q 262.28 194.02 264.28 189.56
  Q 264.50 189.07 265.02 189.21
  C 274.23 191.61 281.29 166.43 283.13 160.04
  C 284.25 156.12 285.33 147.29 279.57 146.95
  C 275.41 146.71 270.75 151.29 268.40 154.44
  A 0.91 0.90 -39.7 0 1 266.86 154.30
  Q 265.04 150.57 264.71 146.50"
/>
<path stroke="#131313" vector-effect="non-scaling-stroke" d="
  M 232.34 90.61
  A 0.35 0.34 56.0 0 1 232.46 89.97
  L 240.70 88.81
  A 0.22 0.22 0.0 0 0 240.71 88.37
  C 214.80 83.83 194.65 75.53 166.45 64.53
  Q 152.01 58.90 132.55 55.91
  Q 131.27 55.71 132.52 56.04
  Q 145.98 59.59 151.27 61.70
  Q 189.07 76.81 226.01 93.89
  Q 229.79 95.64 234.71 94.41
  A 1.21 1.21 0.0 0 0 235.03 92.19
  L 232.34 90.61"
/>
<path stroke="#131313" vector-effect="non-scaling-stroke" d="
  M 166.61 147.17
  C 155.75 138.53 128.92 143.16 116.49 146.44
  Q 115.37 146.74 113.70 147.58
  Q 113.27 147.80 113.09 148.25
  C 110.22 155.43 151.12 159.08 155.78 158.03
  C 160.02 157.07 167.11 153.29 167.02 148.01
  Q 167.01 147.50 166.61 147.17"
/>
<path stroke="#131313" vector-effect="non-scaling-stroke" d="
  M 245.37 148.15
  C 236.90 143.93 225.65 142.90 216.32 142.33
  C 212.21 142.08 188.73 141.85 191.33 150.18
  C 193.23 156.28 203.51 158.90 208.99 158.48
  C 211.30 158.30 246.83 154.97 245.73 148.64
  A 0.65 0.65 0.0 0 0 245.37 148.15"
/>
<path stroke="#131313" vector-effect="non-scaling-stroke" d="
  M 170.01 215.56
  C 177.14 223.81 179.47 225.13 186.88 216.58
  Q 190.51 212.40 195.78 208.80
  Q 199.38 206.35 199.75 201.37
  Q 199.78 200.86 199.38 200.54
  C 195.33 197.37 188.78 199.80 184.12 201.10
  C 178.04 202.80 172.60 201.84 166.85 200.00
  C 164.02 199.10 161.90 198.96 159.24 199.48
  A 2.29 2.28 78.0 0 0 157.45 202.24
  C 158.87 208.36 166.19 211.12 170.01 215.56"
/>
<path stroke="#131313" vector-effect="non-scaling-stroke" d="
  M 157.56 233.58
  C 174.49 232.05 191.14 232.89 208.16 234.42
  A 0.73 0.72 56.7 0 0 208.45 233.01
  Q 200.79 230.48 192.49 227.76
  C 186.16 225.69 182.04 229.66 176.14 227.89
  C 172.48 226.79 169.91 226.47 166.03 227.66
  Q 157.46 230.27 148.84 232.95
  A 0.36 0.36 0.0 0 0 148.92 233.65
  Q 153.19 233.98 157.56 233.58"
/>
<path stroke="#131313" vector-effect="non-scaling-stroke" d="
  M 203.36 241.02
  L 155.23 241.34
  Q 154.40 241.35 155.00 241.93
  C 169.37 255.87 189.56 255.59 203.48 241.31
  A 0.17 0.17 0.0 0 0 203.36 241.02"
/>
<path stroke="#131313" vector-effect="non-scaling-stroke" d="
  M 271.69 176.19
  Q 266.54 180.32 266.03 185.90
  Q 265.97 186.46 266.39 186.85
  Q 268.15 188.52 269.90 186.60
  Q 280.60 174.84 280.23 158.43
  Q 280.17 155.79 279.01 153.34
  A 1.00 0.99 56.7 0 0 277.45 153.01
  Q 273.32 156.63 271.13 161.63
  Q 270.91 162.14 271.05 162.67
  C 271.95 166.20 274.99 173.54 271.69 176.19"
/>
</g>
<path fill="#252525" d="
  M 263.04 152.75
  C 262.21 167.88 262.29 179.74 258.97 197.17
  C 258.51 200.19 257.97 202.34 257.44 206.08
  C 257.10 208.51 255.79 210.78 255.22 212.94
  Q 253.47 219.56 249.98 225.35
  Q 243.61 235.34 237.72 241.98
  Q 225.48 255.78 208.98 268.03
  C 197.88 276.26 185.61 277.56 172.22 276.20
  C 164.14 275.39 158.30 272.88 151.82 268.43
  C 133.48 255.81 115.36 239.73 106.86 218.96
  L 104.40 213.23
  Q 104.55 211.98 103.50 208.74
  Q 96.68 187.65 95.91 162.50
  Q 95.61 152.85 95.30 143.19
  C 94.67 141.68 95.22 140.20 95.12 138.94
  Q 93.87 122.74 92.37 106.57
  C 91.10 92.89 92.33 78.25 97.98 65.87
  C 109.78 39.98 134.92 28.33 161.93 24.37
  C 169.35 23.28 176.90 21.85 184.45 22.75
  Q 194.41 23.94 197.33 24.37
  C 222.25 28.05 244.59 38.80 257.05 61.40
  C 267.95 81.18 266.08 102.93 264.47 124.49
  C 264.07 129.89 263.99 138.05 263.08 144.82
  Q 262.84 146.63 263.04 152.75
  Z
  M 232.34 90.61
  A 0.35 0.34 56.0 0 1 232.46 89.97
  L 240.70 88.81
  A 0.22 0.22 0.0 0 0 240.71 88.37
  C 214.80 83.83 194.65 75.53 166.45 64.53
  Q 152.01 58.90 132.55 55.91
  Q 131.27 55.71 132.52 56.04
  Q 145.98 59.59 151.27 61.70
  Q 189.07 76.81 226.01 93.89
  Q 229.79 95.64 234.71 94.41
  A 1.21 1.21 0.0 0 0 235.03 92.19
  L 232.34 90.61
  Z
  M 166.61 147.17
  C 155.75 138.53 128.92 143.16 116.49 146.44
  Q 115.37 146.74 113.70 147.58
  Q 113.27 147.80 113.09 148.25
  C 110.22 155.43 151.12 159.08 155.78 158.03
  C 160.02 157.07 167.11 153.29 167.02 148.01
  Q 167.01 147.50 166.61 147.17
  Z
  M 245.37 148.15
  C 236.90 143.93 225.65 142.90 216.32 142.33
  C 212.21 142.08 188.73 141.85 191.33 150.18
  C 193.23 156.28 203.51 158.90 208.99 158.48
  C 211.30 158.30 246.83 154.97 245.73 148.64
  A 0.65 0.65 0.0 0 0 245.37 148.15
  Z
  M 170.01 215.56
  C 177.14 223.81 179.47 225.13 186.88 216.58
  Q 190.51 212.40 195.78 208.80
  Q 199.38 206.35 199.75 201.37
  Q 199.78 200.86 199.38 200.54
  C 195.33 197.37 188.78 199.80 184.12 201.10
  C 178.04 202.80 172.60 201.84 166.85 200.00
  C 164.02 199.10 161.90 198.96 159.24 199.48
  A 2.29 2.28 78.0 0 0 157.45 202.24
  C 158.87 208.36 166.19 211.12 170.01 215.56
  Z
  M 157.56 233.58
  C 174.49 232.05 191.14 232.89 208.16 234.42
  A 0.73 0.72 56.7 0 0 208.45 233.01
  Q 200.79 230.48 192.49 227.76
  C 186.16 225.69 182.04 229.66 176.14 227.89
  C 172.48 226.79 169.91 226.47 166.03 227.66
  Q 157.46 230.27 148.84 232.95
  A 0.36 0.36 0.0 0 0 148.92 233.65
  Q 153.19 233.98 157.56 233.58
  Z
  M 203.36 241.02
  L 155.23 241.34
  Q 154.40 241.35 155.00 241.93
  C 169.37 255.87 189.56 255.59 203.48 241.31
  A 0.17 0.17 0.0 0 0 203.36 241.02
  Z"
/>
<path fill="#000000" d="
  M 232.34 90.61
  L 235.03 92.19
  A 1.21 1.21 0.0 0 1 234.71 94.41
  Q 229.79 95.64 226.01 93.89
  Q 189.07 76.81 151.27 61.70
  Q 145.98 59.59 132.52 56.04
  Q 131.27 55.71 132.55 55.91
  Q 152.01 58.90 166.45 64.53
  C 194.65 75.53 214.80 83.83 240.71 88.37
  A 0.22 0.22 0.0 0 1 240.70 88.81
  L 232.46 89.97
  A 0.35 0.34 56.0 0 0 232.34 90.61
  Z"
/>
<path fill="#252525" d="
  M 92.41 145.26
  Q 93.41 150.62 90.65 155.40
  Q 90.41 155.81 90.09 155.46
  C 86.65 151.63 83.33 147.29 77.72 146.94
  Q 77.22 146.91 76.83 147.22
  C 71.90 151.06 74.78 159.04 76.42 164.47
  C 78.25 170.56 80.44 178.00 84.75 183.00
  Q 86.89 188.60 92.85 189.19
  Q 93.44 189.25 93.63 189.81
  Q 94.08 191.18 95.29 192.19
  Q 94.84 193.56 95.03 194.84
  Q 95.11 195.36 94.71 195.71
  L 91.54 198.56
  Q 91.06 198.99 90.50 198.68
  L 88.38 197.47
  Q 87.97 197.24 87.74 196.84
  C 86.78 195.22 81.96 188.53 82.00 187.28
  Q 82.01 186.97 81.87 186.69
  C 79.38 181.81 78.20 176.80 75.48 171.97
  C 72.32 166.39 71.13 157.70 70.39 153.21
  C 69.18 145.92 73.26 139.58 80.61 138.88
  C 85.39 138.43 88.99 142.52 92.41 145.26
  Z"
/>
<path fill="#252525" d="
  M 264.03 198.89
  Q 262.28 194.02 264.28 189.56
  Q 264.50 189.07 265.02 189.21
  C 274.23 191.61 281.29 166.43 283.13 160.04
  C 284.25 156.12 285.33 147.29 279.57 146.95
  C 275.41 146.71 270.75 151.29 268.40 154.44
  A 0.91 0.90 -39.7 0 1 266.86 154.30
  Q 265.04 150.57 264.71 146.50
  C 267.03 144.04 269.21 141.19 272.44 140.13
  C 281.01 137.29 287.77 140.87 288.68 150.29
  C 288.96 153.28 288.03 154.60 287.43 157.00
  Q 283.99 170.67 276.97 185.78
  C 274.28 191.57 271.26 198.55 264.03 198.89
  Z"
/>
<path fill="#000000" d="
  M 116.49 146.44
  C 128.92 143.16 155.75 138.53 166.61 147.17
  Q 167.01 147.50 167.02 148.01
  C 167.11 153.29 160.02 157.07 155.78 158.03
  C 151.12 159.08 110.22 155.43 113.09 148.25
  Q 113.27 147.80 113.70 147.58
  Q 115.37 146.74 116.49 146.44
  Z"
/>
<path fill="#000000" d="
  M 245.37 148.15
  A 0.65 0.65 0.0 0 1 245.73 148.64
  C 246.83 154.97 211.30 158.30 208.99 158.48
  C 203.51 158.90 193.23 156.28 191.33 150.18
  C 188.73 141.85 212.21 142.08 216.32 142.33
  C 225.65 142.90 236.90 143.93 245.37 148.15
  Z"
/>
<path fill="#000000" d="
  M 95.30 143.19
  Q 95.61 152.85 95.91 162.50
  Q 96.68 187.65 103.50 208.74
  Q 104.55 211.98 104.40 213.23
  Q 101.86 211.08 101.92 208.12
  Q 101.93 207.59 101.61 207.16
  Q 99.36 204.14 98.93 200.37
  Q 98.88 199.91 98.62 199.51
  Q 96.40 196.11 95.29 192.19
  Q 94.08 191.18 93.63 189.81
  Q 93.44 189.25 92.85 189.19
  Q 86.89 188.60 84.75 183.00
  L 87.99 186.07
  Q 88.39 186.44 88.90 186.24
  C 97.22 182.94 86.80 177.09 85.55 173.87
  C 84.37 170.82 86.84 165.29 87.53 162.07
  Q 87.62 161.63 87.45 161.21
  Q 85.47 156.44 81.19 153.52
  A 1.09 1.09 0.0 0 0 79.54 154.09
  C 76.46 163.66 80.10 174.58 84.75 183.00
  C 80.44 178.00 78.25 170.56 76.42 164.47
  C 74.78 159.04 71.90 151.06 76.83 147.22
  Q 77.22 146.91 77.72 146.94
  C 83.33 147.29 86.65 151.63 90.09 155.46
  Q 90.41 155.81 90.65 155.40
  Q 93.41 150.62 92.41 145.26
  Q 93.96 145.07 95.30 143.19
  Z"
/>
<path fill="#000000" d="
  M 264.71 146.50
  Q 265.04 150.57 266.86 154.30
  A 0.91 0.90 -39.7 0 0 268.40 154.44
  C 270.75 151.29 275.41 146.71 279.57 146.95
  C 285.33 147.29 284.25 156.12 283.13 160.04
  C 281.29 166.43 274.23 191.61 265.02 189.21
  Q 264.50 189.07 264.28 189.56
  Q 262.28 194.02 264.03 198.89
  L 258.97 197.17
  C 262.29 179.74 262.21 167.88 263.04 152.75
  Q 263.43 152.87 263.71 152.61
  Q 264.06 152.28 264.03 151.80
  Q 263.87 149.09 264.71 146.50
  Z
  M 271.69 176.19
  Q 266.54 180.32 266.03 185.90
  Q 265.97 186.46 266.39 186.85
  Q 268.15 188.52 269.90 186.60
  Q 280.60 174.84 280.23 158.43
  Q 280.17 155.79 279.01 153.34
  A 1.00 0.99 56.7 0 0 277.45 153.01
  Q 273.32 156.63 271.13 161.63
  Q 270.91 162.14 271.05 162.67
  C 271.95 166.20 274.99 173.54 271.69 176.19
  Z"
/>
<path fill="#252525" d="
  M 271.69 176.19
  C 274.99 173.54 271.95 166.20 271.05 162.67
  Q 270.91 162.14 271.13 161.63
  Q 273.32 156.63 277.45 153.01
  A 1.00 0.99 56.7 0 1 279.01 153.34
  Q 280.17 155.79 280.23 158.43
  Q 280.60 174.84 269.90 186.60
  Q 268.15 188.52 266.39 186.85
  Q 265.97 186.46 266.03 185.90
  Q 266.54 180.32 271.69 176.19
  Z"
/>
<path fill="#252525" d="
  M 84.75 183.00
  C 80.10 174.58 76.46 163.66 79.54 154.09
  A 1.09 1.09 0.0 0 1 81.19 153.52
  Q 85.47 156.44 87.45 161.21
  Q 87.62 161.63 87.53 162.07
  C 86.84 165.29 84.37 170.82 85.55 173.87
  C 86.80 177.09 97.22 182.94 88.90 186.24
  Q 88.39 186.44 87.99 186.07
  L 84.75 183.00
  Z"
/>
<path fill="#000000" d="
  M 170.01 215.56
  C 166.19 211.12 158.87 208.36 157.45 202.24
  A 2.29 2.28 78.0 0 1 159.24 199.48
  C 161.90 198.96 164.02 199.10 166.85 200.00
  C 172.60 201.84 178.04 202.80 184.12 201.10
  C 188.78 199.80 195.33 197.37 199.38 200.54
  Q 199.78 200.86 199.75 201.37
  Q 199.38 206.35 195.78 208.80
  Q 190.51 212.40 186.88 216.58
  C 179.47 225.13 177.14 223.81 170.01 215.56
  Z"
/>
<path fill="#000000" d="
  M 106.86 218.96
  C 115.36 239.73 133.48 255.81 151.82 268.43
  C 158.30 272.88 164.14 275.39 172.22 276.20
  C 185.61 277.56 197.88 276.26 208.98 268.03
  Q 225.48 255.78 237.72 241.98
  Q 243.61 235.34 249.98 225.35
  Q 251.17 228.86 251.25 233.50
  Q 251.35 239.50 251.46 245.50
  Q 250.17 245.43 249.87 247.17
  C 244.30 279.99 227.95 319.28 195.24 333.98
  Q 177.52 341.95 160.49 332.21
  C 129.55 314.51 113.79 279.43 108.30 245.65
  A 0.64 0.63 56.7 0 0 107.14 245.41
  C 106.26 246.77 106.92 250.15 106.50 252.04
  C 105.96 243.21 106.85 234.78 106.86 226.02
  Q 106.86 222.51 106.86 218.96
  Z"
/>
<path fill="#000000" d="
  M 208.16 234.42
  C 191.14 232.89 174.49 232.05 157.56 233.58
  Q 153.19 233.98 148.92 233.65
  A 0.36 0.36 0.0 0 1 148.84 232.95
  Q 157.46 230.27 166.03 227.66
  C 169.91 226.47 172.48 226.79 176.14 227.89
  C 182.04 229.66 186.16 225.69 192.49 227.76
  Q 200.79 230.48 208.45 233.01
  A 0.73 0.72 56.7 0 1 208.16 234.42
  Z"
/>
<path fill="#000000" d="
  M 203.36 241.02
  A 0.17 0.17 0.0 0 1 203.48 241.31
  C 189.56 255.59 169.37 255.87 155.00 241.93
  Q 154.40 241.35 155.23 241.34
  L 203.36 241.02
  Z"
/>
<path fill="#252525" d="
  M 251.46 245.50
  C 252.13 254.66 251.07 261.21 250.96 269.24
  C 250.81 279.87 249.96 289.91 249.74 297.50
  Q 249.55 304.49 253.72 310.28
  C 255.14 312.26 257.65 313.14 259.24 315.46
  Q 259.53 315.88 259.99 316.11
  Q 280.93 326.37 303.18 333.43
  Q 303.64 333.58 304.11 333.49
  Q 305.03 333.31 305.72 334.03
  Q 306.09 334.41 306.62 334.48
  L 311.73 335.16
  A 0.42 0.42 0.0 0 1 311.96 335.88
  C 238.58 403.76 131.43 407.86 54.80 342.43
  Q 51.84 339.91 49.53 336.71
  A 0.37 0.37 0.0 0 1 49.68 336.15
  C 53.42 334.43 58.00 333.46 61.17 332.31
  Q 81.05 325.08 95.80 318.54
  Q 100.00 316.67 104.53 312.75
  C 108.67 309.16 109.41 305.12 109.23 299.35
  Q 108.51 275.67 106.50 252.04
  C 106.92 250.15 106.26 246.77 107.14 245.41
  A 0.64 0.63 56.7 0 1 108.30 245.65
  C 113.79 279.43 129.55 314.51 160.49 332.21
  Q 177.52 341.95 195.24 333.98
  C 227.95 319.28 244.30 279.99 249.87 247.17
  Q 250.17 245.43 251.46 245.50
  Z"
/>
</svg>
