<?xml version="1.0" encoding="UTF-8" standalone="no"?>
<!DOCTYPE svg PUBLIC "-//W3C//DTD SVG 1.1//EN" "http://www.w3.org/Graphics/SVG/1.1/DTD/svg11.dtd">
<svg xmlns="http://www.w3.org/2000/svg" version="1.1" viewBox="0.00 0.00 500.00 500.00">
<path fill="#5d1ca6" d="
  M 301.19 239.69
  C 298.53 241.68 296.14 244.25 293.43 245.86
  Q 284.38 251.24 274.52 254.84
  Q 265.21 258.24 256.04 258.73
  Q 247.00 259.22 237.00 258.01
  C 229.10 257.05 216.32 251.72 212.70 249.53
  Q 208.38 246.91 204.02 244.31
  Q 203.58 244.05 203.33 243.62
  Q 202.84 242.79 202.33 242.42
  C 194.72 236.98 188.88 231.03 183.62 223.19
  C 178.21 215.11 174.82 206.99 172.60 197.35
  C 171.59 193.00 170.18 188.45 170.00 184.15
  Q 169.10 162.50 179.47 142.94
  C 182.12 137.93 184.32 133.57 187.80 129.45
  Q 195.87 119.90 206.92 112.16
  C 214.15 107.09 220.22 105.27 228.22 102.74
  C 245.40 97.32 264.88 99.00 281.90 106.09
  C 301.65 114.33 316.01 131.19 324.00 150.23
  C 331.84 168.91 331.49 185.25 325.40 204.47
  C 321.08 218.11 313.62 227.73 303.83 238.26
  C 303.02 239.12 301.95 239.11 301.19 239.69
  Z"
/>
<path fill="#5d1ca6" d="
  M 128.59 362.44
  Q 129.04 356.45 130.95 350.77
  C 131.66 348.66 131.95 346.23 132.54 344.52
  Q 139.48 324.35 152.42 307.42
  C 155.67 303.17 158.81 298.86 162.62 295.25
  Q 180.30 278.44 203.43 268.68
  C 206.41 267.43 207.95 267.68 211.00 269.11
  Q 215.85 271.36 221.04 272.64
  C 223.23 273.17 225.53 274.37 227.51 274.71
  C 242.46 277.33 260.35 277.99 275.04 273.77
  C 281.19 272.00 286.53 271.01 291.84 267.11
  A 1.41 1.38 -50.5 0 1 293.23 266.96
  C 303.11 271.40 313.19 276.43 321.79 282.48
  C 347.63 300.64 366.67 330.40 371.50 362.74
  C 371.81 364.83 372.84 366.80 372.90 368.82
  Q 373.35 382.32 372.84 398.83
  Q 372.77 400.90 370.69 400.90
  Q 249.85 401.01 129.20 401.01
  A 2.06 2.06 0.0 0 1 127.14 399.04
  Q 126.43 383.60 127.07 368.50
  C 127.17 366.26 128.41 364.88 128.59 362.44
  Z"
/>
</svg>
