<?xml version="1.0" encoding="UTF-8" standalone="no"?>
<!DOCTYPE svg PUBLIC "-//W3C//DTD SVG 1.1//EN" "http://www.w3.org/Graphics/SVG/1.1/DTD/svg11.dtd">
<svg xmlns="http://www.w3.org/2000/svg" version="1.1" viewBox="0.00 0.00 500.00 500.00">
<path fill="#7634bf" d="
  M 300.55 240.18
  C 298.14 242.05 295.99 244.35 293.49 245.84
  Q 283.53 251.77 272.59 255.52
  C 262.31 259.04 252.10 259.51 241.41 258.57
  C 228.37 257.43 211.61 250.56 201.59 242.05
  C 197.89 238.92 194.25 236.68 191.21 232.82
  C 188.60 229.52 185.61 226.16 183.43 222.94
  Q 175.43 211.11 172.97 199.50
  C 171.22 191.29 169.33 185.39 169.87 177.31
  C 171.98 145.63 191.35 115.35 222.21 104.50
  C 236.20 99.58 251.91 97.69 266.80 101.37
  C 274.78 103.34 282.77 105.56 289.78 110.00
  C 300.79 116.99 310.49 125.80 317.29 136.92
  Q 326.29 151.63 329.31 168.99
  C 331.20 179.87 329.62 190.96 326.30 201.92
  C 321.93 216.32 314.03 228.27 303.32 238.58
  C 302.67 239.21 301.42 239.50 300.55 240.18
  Z"
/>
<path fill="#7634bf" d="
  M 128.50 364.00
  C 129.05 362.94 128.71 359.71 129.09 358.03
  C 138.41 316.85 163.20 286.35 202.02 269.32
  C 205.40 267.84 206.91 267.22 210.54 268.91
  Q 215.55 271.24 220.50 272.49
  C 223.46 273.23 226.08 274.51 228.83 274.95
  C 248.00 278.06 266.02 277.19 283.61 271.46
  Q 288.07 270.00 291.40 267.27
  A 1.83 1.82 -52.6 0 1 293.29 267.01
  C 307.20 273.12 319.83 280.09 331.38 290.01
  C 348.65 304.84 361.87 326.01 368.32 347.75
  C 369.79 352.71 370.82 359.53 372.16 365.46
  Q 373.01 369.20 373.05 372.63
  Q 373.21 385.44 372.91 398.25
  Q 372.86 400.78 370.69 400.78
  Q 249.76 401.01 129.00 401.03
  A 1.81 1.80 -1.5 0 1 127.19 399.32
  Q 126.39 384.91 127.04 371.25
  Q 127.27 366.37 128.50 364.00
  Z"
/>
</svg>
