<?xml version="1.0" encoding="UTF-8" standalone="no"?>
<!DOCTYPE svg PUBLIC "-//W3C//DTD SVG 1.1//EN" "http://www.w3.org/Graphics/SVG/1.1/DTD/svg11.dtd">
<svg xmlns="http://www.w3.org/2000/svg" version="1.1" viewBox="0.00 0.00 500.00 500.00">
<path fill="#e03584" d="
  M 301.19 239.69
  C 298.56 241.50 296.11 244.28 293.24 245.98
  C 281.82 252.76 269.24 257.93 255.94 258.74
  C 246.57 259.32 237.56 258.82 228.53 255.89
  C 218.61 252.65 209.03 248.39 201.03 241.54
  C 197.97 238.92 194.69 237.11 192.14 234.00
  C 182.64 222.49 176.06 212.79 172.70 197.65
  C 171.95 194.30 170.64 190.59 170.35 187.39
  Q 168.23 163.83 180.18 141.66
  Q 185.06 132.62 188.45 128.70
  C 196.96 118.85 207.86 109.74 220.17 105.15
  C 239.24 98.03 257.28 97.86 275.90 103.86
  C 293.02 109.36 311.55 124.08 319.29 140.58
  Q 320.84 143.90 322.46 147.18
  C 329.59 161.69 331.69 177.19 328.38 193.63
  C 324.72 211.81 316.93 224.07 304.02 238.10
  C 303.13 239.07 302.02 239.11 301.19 239.69
  Z"
/>
<path fill="#e03584" d="
  M 315.57 278.49
  C 316.70 279.74 318.82 280.13 320.27 281.22
  Q 332.95 290.73 337.37 295.37
  C 354.89 313.75 367.29 336.32 371.20 361.03
  C 371.62 363.67 372.73 366.53 372.99 368.75
  Q 373.68 374.51 372.91 395.43
  C 372.82 397.82 373.93 401.00 370.00 401.00
  Q 249.75 401.00 129.21 401.00
  A 2.11 2.10 88.6 0 1 127.11 399.00
  Q 126.37 384.18 127.10 369.10
  Q 127.17 367.64 128.09 365.07
  C 128.89 362.82 128.67 360.28 129.06 358.33
  Q 133.76 334.79 146.91 315.16
  C 151.53 308.27 156.93 300.81 162.91 295.05
  Q 179.61 278.99 201.05 269.74
  C 203.73 268.58 206.71 266.97 209.43 268.30
  C 212.36 269.74 215.00 270.97 218.32 271.84
  C 222.42 272.92 226.32 274.60 230.33 275.19
  C 248.83 277.92 267.19 277.17 284.93 270.91
  Q 288.24 269.74 291.61 267.22
  Q 292.02 266.92 292.53 266.97
  Q 293.56 267.06 294.50 267.50
  Q 304.78 272.26 314.68 277.75
  Q 315.14 278.01 315.57 278.49
  Z"
/>
</svg>
