<?xml version="1.0" encoding="UTF-8" standalone="no"?>
<!DOCTYPE svg PUBLIC "-//W3C//DTD SVG 1.1//EN" "http://www.w3.org/Graphics/SVG/1.1/DTD/svg11.dtd">
<svg xmlns="http://www.w3.org/2000/svg" version="1.1" viewBox="0.00 0.00 663.00 694.00">
<path fill="#1e1e1e" d="
  M 210.13 210.09
  A 1.71 1.71 0.0 0 0 212.36 208.33
  Q 210.97 190.26 208.48 172.88
  Q 206.41 158.48 206.16 153.04
  C 203.69 99.35 233.92 50.36 287.69 37.07
  C 326.45 27.48 375.53 33.62 407.11 60.15
  C 434.14 82.86 445.99 115.71 445.23 150.72
  C 444.79 170.61 439.60 190.19 438.91 210.12
  A 0.63 0.63 0.0 0 0 439.88 210.67
  Q 444.06 208.03 448.91 209.28
  Q 449.45 209.42 449.62 209.96
  Q 451.15 214.80 450.49 219.25
  C 448.62 231.71 443.98 271.37 436.05 274.46
  Q 433.82 275.33 431.33 273.90
  A 1.81 1.81 0.0 0 0 428.68 275.03
  Q 422.79 298.49 416.69 321.74
  Q 415.77 325.25 416.09 331.74
  Q 417.37 357.51 426.74 382.55
  C 432.38 397.63 440.31 405.81 453.95 414.28
  C 483.09 432.39 516.10 443.32 546.45 459.28
  Q 554.69 463.61 583.19 480.66
  Q 583.62 480.91 584.11 480.92
  Q 587.69 480.98 589.07 484.16
  Q 589.27 484.60 589.68 484.85
  L 599.09 490.41
  A 1.34 1.34 0.0 0 1 599.40 492.46
  C 598.62 493.32 597.74 494.03 597.06 495.05
  Q 577.71 524.32 556.51 546.01
  C 498.84 605.02 420.77 640.12 337.75 642.98
  C 220.54 647.01 115.24 589.02 52.91 490.70
  Q 52.59 490.19 53.04 489.79
  Q 55.21 487.85 57.45 486.00
  C 59.76 484.10 62.51 483.84 64.98 481.60
  Q 65.35 481.26 65.86 481.21
  Q 68.00 481.03 69.44 480.20
  C 93.24 466.49 116.76 452.75 141.76 442.01
  C 163.18 432.81 184.86 423.14 203.68 410.18
  C 215.56 401.99 221.47 391.33 226.18 377.73
  C 232.54 359.37 238.22 335.48 233.12 316.28
  Q 227.67 295.79 222.60 275.16
  A 1.61 1.61 0.0 0 0 220.38 274.07
  C 214.41 276.69 211.61 272.66 209.85 267.68
  C 206.26 257.55 204.40 246.76 201.47 235.81
  C 199.78 229.51 195.38 212.18 203.53 208.31
  Q 203.98 208.10 204.45 208.25
  L 210.13 210.09
  Z"
/>
</svg>
